<svg xmlns="http://www.w3.org/2000/svg" xmlns:xlink="http://www.w3.org/1999/xlink" width="13.514" height="18"
     viewBox="0 0 13.514 18">
    <defs>
        <clipPath id="clip-path">
            <rect id="Rectangle_275" data-name="Rectangle 275" width="13.514" height="18" fill="none"/>
        </clipPath>
    </defs>
    <g id="Group_555" data-name="Group 555" transform="translate(0 0)">
        <path id="Path_574" data-name="Path 574" d="M.532,0V5.143L5.114,8.461h4L13.7,5.143V0Z"
              transform="translate(-0.348)" fill="#121211"/>
        <rect id="Rectangle_274" data-name="Rectangle 274" width="13.514" height="0.526" transform="translate(0 12.731)"
              fill="#121211"/>
        <g id="Group_554" data-name="Group 554" transform="translate(0 0)">
            <g id="Group_553" data-name="Group 553" clip-path="url(#clip-path)">
                <path id="Path_575" data-name="Path 575"
                      d="M3.408,34.767c0,.345-.2.624-.441.624s-.441-.279-.441-.624.2-.624.441-.624.441.279.441.624"
                      transform="translate(-1.421 -19.204)" fill="#121211"/>
                <path id="Path_576" data-name="Path 576"
                      d="M7.5,33.737c0,.344-.2.624-.441.624s-.441-.28-.441-.624.2-.624.441-.624.441.28.441.624"
                      transform="translate(-3.721 -18.624)" fill="#121211"/>
                <path id="Path_577" data-name="Path 577"
                      d="M11.456,34.564c0,.344-.2.624-.441.624s-.441-.28-.441-.624.2-.624.441-.624.441.279.441.624"
                      transform="translate(-5.947 -19.09)" fill="#121211"/>
                <path id="Path_578" data-name="Path 578"
                      d="M9.687,38.719c0,.345-.2.624-.441.624s-.441-.279-.441-.624.2-.624.441-.624.441.28.441.624"
                      transform="translate(-4.952 -21.427)" fill="#121211"/>
                <path id="Path_579" data-name="Path 579"
                      d="M5.53,37.888c0,.345-.2.624-.441.624s-.441-.28-.441-.624.2-.624.441-.624.441.28.441.624"
                      transform="translate(-2.614 -20.959)" fill="#121211"/>
                <path id="Path_580" data-name="Path 580"
                      d="M1.4,38.723c0,.344-.2.624-.441.624s-.441-.279-.441-.624.2-.624.441-.624.441.279.441.624"
                      transform="translate(-0.291 -21.429)" fill="#121211"/>
                <path id="Path_581" data-name="Path 581"
                      d="M28.329,34.06c0,.344.2.624.441.624s.441-.28.441-.624-.2-.624-.441-.624-.441.279-.441.624"
                      transform="translate(-15.934 -18.806)" fill="#121211"/>
                <path id="Path_582" data-name="Path 582"
                      d="M24.05,34.954c0,.345.2.624.441.624s.441-.279.441-.624-.2-.624-.441-.624-.441.279-.441.624"
                      transform="translate(-13.527 -19.309)" fill="#121211"/>
                <path id="Path_583" data-name="Path 583"
                      d="M19.956,33.927c0,.345.2.624.441.624s.441-.279.441-.624-.2-.623-.441-.623-.441.279-.441.623"
                      transform="translate(-11.224 -18.732)" fill="#121211"/>
                <path id="Path_584" data-name="Path 584"
                      d="M16,34.752c0,.344.2.624.441.624s.441-.28.441-.624-.2-.624-.441-.624-.441.28-.441.624"
                      transform="translate(-8.998 -19.195)" fill="#121211"/>
                <path id="Path_585" data-name="Path 585"
                      d="M17.77,38.906c0,.345.2.624.441.624s.441-.279.441-.624-.2-.624-.441-.624-.441.28-.441.624"
                      transform="translate(-9.995 -21.532)" fill="#121211"/>
                <path id="Path_586" data-name="Path 586"
                      d="M21.924,38.077c0,.345.2.624.441.624s.441-.279.441-.624-.2-.624-.441-.624-.441.279-.441.624"
                      transform="translate(-12.331 -21.065)" fill="#121211"/>
                <path id="Path_587" data-name="Path 587"
                      d="M26.057,38.91c0,.345.2.624.441.624s.441-.279.441-.624-.2-.624-.441-.624-.441.279-.441.624"
                      transform="translate(-14.656 -21.534)" fill="#121211"/>
            </g>
        </g>
    </g>
</svg>
