<svg xmlns="http://www.w3.org/2000/svg" xmlns:xlink="http://www.w3.org/1999/xlink" width="14.573" height="18"
     viewBox="0 0 14.573 18">
    <defs>
        <clipPath id="clip-path">
            <rect id="Rectangle_272" data-name="Rectangle 272" width="14.573" height="18" transform="translate(0 0)"
                  fill="none"/>
        </clipPath>
    </defs>
    <g id="Group_550" data-name="Group 550" transform="translate(0 0)">
        <g id="Group_549" data-name="Group 549" transform="translate(0 0)" clip-path="url(#clip-path)">
            <path id="Path_568" data-name="Path 568"
                  d="M26.8,8.659H26.49l.9,1.1a.54.54,0,0,1-.414.882h-.792c.124.18.464.544.072.936a1.566,1.566,0,0,0,1.261.5c1.206,0,1.8-.828,1.8-2.521,0-1.873-.72-4.681-1.8-4.681-.522,0-.972.666-1.279,1.567l.991,1.35a.535.535,0,0,1-.432.864"
                  transform="translate(-16.448 -3.064)" fill="#040506" fill-rule="evenodd"/>
            <path id="Path_569" data-name="Path 569"
                  d="M12.015,2.535h.36L10.611,4.948a.166.166,0,0,0,.144.27h1.062L10.431,6.91a.192.192,0,0,0,.144.306h1.459l-.54.792a.18.18,0,0,0,.162.27h4.321a.18.18,0,0,0,.162-.27l-.54-.792h1.459A.192.192,0,0,0,17.2,6.91L15.814,5.236h1.063a.166.166,0,0,0,.144-.27L15.257,2.535h.36a.191.191,0,0,0,.143-.306L13.96.068a.169.169,0,0,0-.27,0l-1.8,2.161c-.078.118-.025.306.126.306"
                  transform="translate(-6.529 0)" fill="#040506" fill-rule="evenodd"/>
            <path id="Path_570" data-name="Path 570"
                  d="M6.386,12.111a1.592,1.592,0,0,0,1.261-.5c-.383-.383-.053-.756.072-.936H6.926a.539.539,0,0,1-.414-.882l.9-1.1H7.106a.525.525,0,0,1-.432-.846l.991-1.35c-.306-.9-.756-1.567-1.278-1.567-1.08,0-1.8,2.809-1.8,4.681,0,1.674.595,2.5,1.8,2.5"
                  transform="translate(-2.88 -3.095)" fill="#040506" fill-rule="evenodd"/>
            <path id="Path_571" data-name="Path 571"
                  d="M14.083,27.676a7.258,7.258,0,0,0,.49-2.51H12.788a.182.182,0,0,0-.1-.03H11.428V23.677a3.53,3.53,0,0,1-.72,0v1.458H7.647V22.795h-.72v2.341H3.866V23.677a3.985,3.985,0,0,1-.72,0v1.458H1.885a.179.179,0,0,0-.1.03H0a7.264,7.264,0,0,0,.447,2.4l1.382-2.077a.188.188,0,0,0,.056.011H3.136L.993,28.717A7.315,7.315,0,0,0,2.8,30.783L4.311,25.5H5.449L3.756,31.417A7.235,7.235,0,0,0,6.59,32.3V25.5H7.684v6.823a7.235,7.235,0,0,0,2.918-.786L8.876,25.5h1.138l1.556,5.441a7.325,7.325,0,0,0,1.954-2.126L11.318,25.5h1.315Z"
                  transform="translate(0 -14.319)" fill="#040506" fill-rule="evenodd"/>
        </g>
    </g>
</svg>
