<svg xmlns="http://www.w3.org/2000/svg" width="23.975" height="18" viewBox="0 0 23.975 18">
    <g id="Group_543" data-name="Group 543" transform="translate(-6.497 -8.714)">
        <g id="Group_544" data-name="Group 544" transform="translate(6.497 8.714)">
            <path id="Path_563" data-name="Path 563"
                  d="M22.021,34.393c.077-1.606,1.743-2.432,3.349-1.734a2.615,2.615,0,0,1,1.016-.683c-1.128-2.687-2.2-3.9-2.994-4.24-7,2.931-5.9-2.347-9.125-4.547C20.5,21.1,23.508,20.978,24,26.949a12.6,12.6,0,0,1,3.021,4.165c1.267-4.633,5.032-8.3,9.878-10.794-4.725,2.069-6.747,3.468-8.734,6.627-2.411-8.449,5.465-5.741,10.071-7.813-2.282,4.393-1.922,11.377-8.565,8.776a8.868,8.868,0,0,0-1.8,4A2.071,2.071,0,0,1,29.4,33.57a1.576,1.576,0,0,1,2.546,1.421c.8-.295,1.932.751.391.842-3.46.208-3.815,1.3-5.8,1.3-1.526,0-.867-.755-4.532-1.183-2.553-.3-.515-1.63.016-1.559"
                  transform="translate(-14.266 -19.135)" fill="#0b0b0b" fill-rule="evenodd"/>
        </g>
    </g>
</svg>
