<svg xmlns="http://www.w3.org/2000/svg" xmlns:xlink="http://www.w3.org/1999/xlink" width="16.074" height="18"
     viewBox="0 0 16.074 18">
    <defs>
        <clipPath id="clip-path">
            <rect id="Rectangle_270" data-name="Rectangle 270" width="16.074" height="18" fill="none"/>
        </clipPath>
    </defs>
    <g id="Group_546" data-name="Group 546" transform="translate(0 0)">
        <g id="Group_545" data-name="Group 545" transform="translate(0 0)" clip-path="url(#clip-path)">
            <path id="Path_564" data-name="Path 564"
                  d="M4.649.007A17.814,17.814,0,0,0,.484,1a.392.392,0,0,0,.239.746A17.816,17.816,0,0,1,4.679.792,2.076,2.076,0,0,1,6.8,1.765a2.216,2.216,0,0,1,.721-.324A3.18,3.18,0,0,0,4.649.007M8.554,1.444a2.235,2.235,0,0,1,.721.318A2.08,2.08,0,0,1,11.4.789a17.8,17.8,0,0,1,3.954.96A.392.392,0,0,0,15.59,1a17.829,17.829,0,0,0-4.162-1A2.945,2.945,0,0,0,8.555,1.444Zm-.52.324a1.785,1.785,0,0,0-1.626,1.07,9.486,9.486,0,0,1,3.251,0A1.785,1.785,0,0,0,8.035,1.77Zm-6.387.78A.408.408,0,0,0,1.292,3v0l.2,1.174a.392.392,0,0,0,.1.2L3.154,6.136a.383.383,0,0,0,.153.108l1.442.541c.073-.256.152-.5.244-.74l-1.32-.5L2.25,3.948l-.177-1.07a.406.406,0,0,0-.425-.329m12.725,0a.4.4,0,0,0-.367.33l-.177,1.07L12.4,5.551l-1.32.5c.092.238.172.487.244.74l1.442-.541a.387.387,0,0,0,.153-.108l1.565-1.761a.4.4,0,0,0,.1-.2l.194-1.175a.409.409,0,0,0-.357-.455.418.418,0,0,0-.052,0Zm-6.338.936a7.223,7.223,0,0,0-2.023.263.99.99,0,0,0-.2,1.229,12.038,12.038,0,0,0,2.217.171,12.691,12.691,0,0,0,2.217-.171.988.988,0,0,0-.19-1.229,7.284,7.284,0,0,0-2.026-.265ZM5.541,5.722A10.619,10.619,0,0,0,4.71,9.991c0,2.873,1.481,5.747,2.934,6.2V5.922a12.817,12.817,0,0,1-2.1-.2Zm4.987,0a12.247,12.247,0,0,1-2.1.2V16.188c1.453-.454,2.934-3.327,2.934-6.2a10.618,10.618,0,0,0-.831-4.268ZM4.386,8.67l-.911.153A.4.4,0,0,0,3.2,9l-1.29,2.03-1.631.542a.393.393,0,1,0,.218.756l.032-.01,1.76-.587a.394.394,0,0,0,.2-.165L3.768,9.56l.562-.092c.011-.266.027-.535.054-.8Zm7.3,0c.028.266.044.536.054.8l.556.092,1.277,2.005a.4.4,0,0,0,.208.165l1.759.585a.394.394,0,0,0,.282-.736.219.219,0,0,0-.032-.01l-1.638-.545L12.861,9A.4.4,0,0,0,12.6,8.82ZM4.526,11.927,3.518,12.6a.4.4,0,0,0-.162.4l.541,2.91L2.3,17.326a.392.392,0,0,0,.519.587l1.76-1.565a.4.4,0,0,0,.122-.367l-.538-2.873.562-.379c-.077-.261-.144-.528-.2-.8Zm7.023,0c-.054.27-.124.541-.2.8l.562.379-.536,2.874a.4.4,0,0,0,.122.367l1.76,1.565a.392.392,0,0,0,.519-.587l-1.6-1.419L12.723,13a.4.4,0,0,0-.162-.4Z"
                  transform="translate(0 0)" fill="#040405"/>
        </g>
    </g>
</svg>
