<svg id="Group_56" data-name="Group 56" xmlns="http://www.w3.org/2000/svg" width="33.656" height="62.135" viewBox="0 0 33.656 62.135">
  <path id="Path_174" data-name="Path 174" d="M396.849,15.334l-7.084.023c.157,1.393.266,2.834.313,4.2l7.616-.023A19.345,19.345,0,0,1,396.849,15.334Zm5.949,12.5c4.493,9.557,9.706,20.641,2.583,33.846a.761.761,0,0,1-.7.454H378.65a.752.752,0,0,1-.7-.485c-9.142-23.217,7.515-23.5,10.348-36.022.791-3.483.039-10.779-.642-13.847L380.8,16.086a.787.787,0,0,1-.767.07.768.768,0,0,1-.368-1.01l3.288-7.053h-5.017a.758.758,0,0,1-.752-.759V.759A.753.753,0,0,1,377.938,0h24.845a.755.755,0,0,1,.759.759V7.334a.76.76,0,0,1-.759.759h-2.356C395.847,14.144,400.043,21.972,402.8,27.835ZM384.63,8.094l-2.5,5.37,5.127-3.217a6.064,6.064,0,0,0-1.018-2.153Z" transform="translate(-375.232 0)" fill="#333"/>
</svg>
