<svg id="Group_200" data-name="Group 200" xmlns="http://www.w3.org/2000/svg" xmlns:xlink="http://www.w3.org/1999/xlink" width="56" height="56" viewBox="0 0 56 56">
  <defs>
    <clipPath id="clip-path">
      <rect id="Rectangle_102" data-name="Rectangle 102" width="56" height="56" fill="#333"/>
    </clipPath>
  </defs>
  <g id="Group_201" data-name="Group 201" clip-path="url(#clip-path)">
    <path id="Path_270" data-name="Path 270" d="M27.812,33.905A13.906,13.906,0,1,1,13.906,20,13.905,13.905,0,0,1,27.812,33.905" transform="translate(0 -6.094)" fill="#333"/>
    <path id="Path_271" data-name="Path 271" d="M41.953,60A6.953,6.953,0,1,1,35,66.951,6.954,6.954,0,0,1,41.953,60" transform="translate(-10.664 -18.281)" fill="#333"/>
    <path id="Path_272" data-name="Path 272" d="M74.922,63.618a4.636,4.636,0,0,0-4.636,4.635H67.969a4.638,4.638,0,0,0-4.636-4.635V61.3a4.635,4.635,0,0,0,4.636-4.635h2.317A4.638,4.638,0,0,0,74.922,61.3Z" transform="translate(-19.297 -17.266)" fill="#333"/>
    <path id="Path_273" data-name="Path 273" d="M22.317,66.665A2.317,2.317,0,1,1,20,68.982a2.317,2.317,0,0,1,2.317-2.317" transform="translate(-6.094 -20.313)" fill="#333"/>
    <path id="Path_274" data-name="Path 274" d="M2.317,13.333A2.317,2.317,0,1,1,0,15.65a2.317,2.317,0,0,1,2.317-2.317" transform="translate(0 -4.063)" fill="#333"/>
    <path id="Path_275" data-name="Path 275" d="M20.144,3.333A3.477,3.477,0,1,1,16.667,6.81a3.477,3.477,0,0,1,3.477-3.477" transform="translate(-5.078 -1.016)" fill="#333"/>
    <path id="Path_276" data-name="Path 276" d="M10.286,73.475A3.477,3.477,0,1,1,6.81,70a3.474,3.474,0,0,1,3.477,3.477" transform="translate(-1.016 -21.328)" fill="#333"/>
    <path id="Path_277" data-name="Path 277" d="M46.027,0A18.525,18.525,0,0,0,29.355,10.47,18.556,18.556,0,0,1,41.392,27.811a18.367,18.367,0,0,1-1.874,8.07A18.533,18.533,0,1,0,46.027,0M55.3,18.541a9.267,9.267,0,0,0-9.271-9.27V4.635A13.9,13.9,0,0,1,59.933,18.541Z" transform="translate(-8.944)" fill="#333"/>
  </g>
</svg>
