<svg id="Group_173" data-name="Group 173" xmlns="http://www.w3.org/2000/svg" width="59.993" height="62.063" viewBox="0 0 59.993 62.063">
  <path id="Path_173" data-name="Path 173" d="M60.89,51.65a3.1,3.1,0,0,0-3.1,3.1H55.718V25.79a8.285,8.285,0,0,0-8.275-8.275H45.375V9.241h3.1a3.1,3.1,0,0,0,3.1-3.1V5.1a3.1,3.1,0,0,0-3.1-3.1H34a3.1,3.1,0,0,0-3.1,3.1V6.137a3.1,3.1,0,0,0,3.1,3.1h3.1v8.275H35.031a8.284,8.284,0,0,0-7.654,5.153A4.118,4.118,0,0,0,20.55,25.79V42.34a6.206,6.206,0,0,1-12.412,0V22.687H9.172a1.035,1.035,0,0,0,1.034-1.034V9.241a.983.983,0,0,0-.029-.146.576.576,0,0,0,0-.1L9.143,4.854a1.035,1.035,0,0,0-1.005-.785H6.069a1.034,1.034,0,0,0-1,.783L4.031,8.989a.432.432,0,0,0,0,.1A.918.918,0,0,0,4,9.241V21.653a1.035,1.035,0,0,0,1.034,1.034H6.069V42.34a8.275,8.275,0,0,0,16.55,0V25.79a2.069,2.069,0,1,1,4.137,0V54.753H24.687a3.1,3.1,0,0,0-6.206,0v6.206a3.1,3.1,0,1,0,6.206,0h33.1a3.1,3.1,0,1,0,6.206,0V54.753A3.1,3.1,0,0,0,60.89,51.65ZM34,7.172a1.035,1.035,0,0,1-1.034-1.034V5.1A1.035,1.035,0,0,1,34,4.069H48.478A1.035,1.035,0,0,1,49.512,5.1V6.137a1.035,1.035,0,0,1-1.034,1.034M39.168,9.241h4.137v8.275H39.168Z" transform="translate(-4 -2)" fill="#333"/>
</svg>
