<svg id="Group_175" data-name="Group 175" xmlns="http://www.w3.org/2000/svg" width="60.648" height="62.136" viewBox="0 0 60.648 62.136">
  <path id="Path_165" data-name="Path 165" d="M30.735,26.119a2.139,2.139,0,0,0,.895-.786l.19-.391,1.913-4.124a.154.154,0,0,1,.012-.033.032.032,0,0,0,.01-.014l.989-2.136a.707.707,0,0,1,1.285.592l-.754,1.629,8.3,4.841L40.65,13.408s-1.372-4.485-5.3-3.752a5.773,5.773,0,0,0-3.978,3.2l-3.555,9.757L19.9,25.435a2.35,2.35,0,0,0-1.316,2.186,2.3,2.3,0,0,0,3.046,1.931Z" transform="translate(4.349 2.176)" fill="#333"/>
  <rect id="Rectangle_19" data-name="Rectangle 19" width="5.77" height="3.083" transform="translate(47.622 6.749) rotate(-13.568)" fill="#333"/>
  <path id="Path_166" data-name="Path 166" d="M8.936,42.741a1.011,1.011,0,0,1-.826-1.593l10.9-15.454a1.011,1.011,0,0,1,1.652,1.164L9.762,42.314a1.012,1.012,0,0,1-.827.427Z" transform="translate(1.855 5.85)" fill="#333"/>
  <path id="Path_167" data-name="Path 167" d="M8.262,50.494a.889.889,0,0,1-.892-.844.915.915,0,0,1,.226-.643.9.9,0,0,1,.618-.3h0a.91.91,0,0,1,.939.845.891.891,0,0,1-.844.938Zm-.167-2.959a.9.9,0,0,1-.88-.844.9.9,0,0,1,.844-.94h0A.91.91,0,0,1,9,46.6a.888.888,0,0,1-.855.926.2.2,0,0,1-.048.014Zm-.118-2.972H7.941a.893.893,0,0,1-.047-1.783H7.9a.892.892,0,0,1,.928.845.894.894,0,0,1-.844.939Zm-.19-2.972a.891.891,0,0,1-.892-.844.916.916,0,0,1,.856-.94h0a.905.905,0,0,1,.927.845.891.891,0,0,1-.844.939Z" transform="translate(1.614 9.254)" fill="#333"/>
  <path id="Path_168" data-name="Path 168" d="M54.674,32.308a16.635,16.635,0,0,0-3.361-6.815l1.735-.418a2.815,2.815,0,0,0,2.077-3.4l-2.8-11.619a2.815,2.815,0,0,0-3.4-2.076L43.419,9.312a2.814,2.814,0,0,0-2.077,3.4l2.8,11.618a2.812,2.812,0,0,0,3.4,2.076l1.856-.448c.738.884,3.078,3.859,3.515,6.631.389,2.474-.044,4.407-1.29,5.746-1.52,1.633-3.966,2.137-5.686,2.283L42.929,27.991l-9.348-5.454-1.567,3.385L33.3,31.846l-9.1,8.546a3.774,3.774,0,0,0-.889,2.694l-.063,13.354V57.2a3.229,3.229,0,0,0,1.142,2.289,3.347,3.347,0,0,0,2.5.849,3.207,3.207,0,0,0,3.14-2.718l.218-13.9,7.55-6.2,1.62,6.842a4.244,4.244,0,0,0,.68,1.449L48.27,58.639a3.206,3.206,0,0,0,3.222,1.7,3.64,3.64,0,0,0,2.373-1.229,3.087,3.087,0,0,0,.764-2.5,2.406,2.406,0,0,0-.426-1.441L46.545,43.181l-.193-.811a10.373,10.373,0,0,0,6.568-2.819C54.563,37.791,55.153,35.353,54.674,32.308Z" transform="translate(5.443 1.785)" fill="#333"/>
  <path id="Path_169" data-name="Path 169" d="M34.432,6.57v-.01h0l.007-1.582a5.131,5.131,0,0,0-10.252-.046H18.724V6.561Z" transform="translate(4.383 -0.053)" fill="#333"/>
  <path id="Path_170" data-name="Path 170" d="M3.23,48.908a.832.832,0,0,1-.5-.154.874.874,0,0,1-.237-1.237.905.905,0,0,1,1.237-.238.892.892,0,0,1-.5,1.629Zm1.676-2.451a.872.872,0,0,1-.511-.167.9.9,0,0,1-.368-.558.866.866,0,0,1,.142-.679.9.9,0,0,1,1.237-.225.845.845,0,0,1,.368.558.91.91,0,0,1-.13.678.924.924,0,0,1-.738.392ZM6.583,44a.832.832,0,0,1-.5-.154.875.875,0,0,1-.238-1.237.919.919,0,0,1,1.237-.238.851.851,0,0,1,.368.57.871.871,0,0,1-.13.666A.9.9,0,0,1,6.583,44Z" transform="translate(0.546 9.82)" fill="#333"/>
  <path id="Path_171" data-name="Path 171" d="M.889,43.639a.894.894,0,0,1-.226-1.759.917.917,0,0,1,1.093.631.894.894,0,0,1-.631,1.095.872.872,0,0,1-.237.033Zm2.877-.784A.906.906,0,0,1,2.9,42.2a.893.893,0,1,1,1.724-.463.9.9,0,0,1-.631,1.093,1.575,1.575,0,0,1-.226.023Zm2.866-.773a.9.9,0,0,1-.238-1.761.907.907,0,0,1,1.093.631.9.9,0,0,1-.855,1.13Z" transform="translate(0 9.368)" fill="#333"/>
  <path id="Path_172" data-name="Path 172" d="M29.887,6.383v0H20.331l.1.864a8.945,8.945,0,0,0,8.682,8.092h.773V11.181a4.963,4.963,0,0,0,4.157-4.739h0V6.43c0-.016,0-.031,0-.047Zm-1.545,7.364a7.4,7.4,0,0,1-6.225-5.821h6.225Z" transform="translate(4.76 1.428)" fill="#333"/>
</svg>
