<svg xmlns="http://www.w3.org/2000/svg" width="21" height="21" viewBox="0 0 21 21"><g><g><path fill="#fff" d="M0 10.5C0 4.7 4.701 0 10.5 0 16.3 0 21 4.7 21 10.5 21 16.299 16.3 21 10.5 21 4.701 21 0 16.299 0 10.5z"/></g><g><path fill="#7f0057" d="M14.707 13.217l-.052-.104c-.145-.341-1.925-.859-2.07-.87l-.114.011c-.217.042-.455.238-.921.642a.281.281 0 0 1-.331.041c-.61-.341-1.356-1.024-1.729-1.438-.403-.445-.89-1.18-1.118-1.77a.31.31 0 0 1 .083-.321c.528-.476.756-.704.777-.952.01-.145-.3-1.977-.621-2.153l-.094-.062c-.207-.135-.517-.332-.859-.26a.95.95 0 0 0-.238.094c-.227.145-.797.538-1.055 1.045-.156.321-.228 3.23 1.945 5.683 2.153 2.432 4.813 2.536 5.207 2.453h.01l.03-.01c.54-.197.995-.704 1.17-.922.321-.383.104-.848-.02-1.107z"/></g></g></svg>