<svg xmlns="http://www.w3.org/2000/svg" width="30" height="26" viewBox="0 0 30 26"><g><g clip-path="url(#clip-4bd1bad8-9008-44c2-a4ec-f4cd248028d8)"><path fill="#fff" d="M10.52 21.61l-4.227 1.348.77-4.378zM25.395 7.808l-13.058 12.8-1.48-1.297 13.17-12.871zM22.657 5.07L9.385 18.033l-1.46-1.277L21.39 3.804zm.839-3.301c1.322 1.307 2.626 2.766 3.946 4.122l-.648.648-4.005-4.084.707-.686zm.165-2.364a.988.988 0 0 0-.801.263L5.674 16.209a.981.981 0 0 0-.283.537l-1.268 7.307H1.487c-.514-.007-.987.458-.987.973 0 .514.473.98.987.973h17.52c.51.026.998-.413 1.024-.923.027-.509-.413-.997-.923-1.023H9.274l3.214-1.024a.979.979 0 0 0 .385-.233L29.419 6.581c.358-.351.373-.991.031-1.358L24.239-.29a.982.982 0 0 0-.578-.304z"/></g></g></svg>