<svg xmlns="http://www.w3.org/2000/svg" width="33" height="21" viewBox="0 0 33 21"><defs><clipPath id="jhmra"><path d="M0 20.645V0h32.412v20.645z"/></clipPath></defs><g><g><g/><g clip-path="url(#jhmra)"><path fill="#7d7d7d" d="M31.003 10.146h-8.174V3.805h3.946zm-5.848 2.819h-1.057a.482.482 0 0 1-.494-.493c0-.282.212-.494.494-.494h1.057c.281 0 .493.212.493.494zm7.257-3.312L27.55 2.325h-6.13v15.22h1.832c.282-1.762 1.832-3.03 3.664-3.03s3.312 1.339 3.664 3.03h1.832z"/></g><g clip-path="url(#jhmra)"><path fill="#7d7d7d" d="M5.778 14.585c1.832 0 3.311 1.339 3.664 3.03h10.71v-3.734H0v3.734h2.114c.352-1.691 1.832-3.03 3.664-3.03"/></g><g clip-path="url(#jhmra)"><path fill="#db3232" d="M0 1.973v10.499h20.152V1.198C20.152.564 19.588 0 18.954 0H1.973A1.97 1.97 0 0 0 0 1.973"/></g><g clip-path="url(#jhmra)"><path fill="#7d7d7d" d="M5.778 20.575a2.346 2.346 0 0 0 2.325-2.326c0-1.197-.986-2.325-2.325-2.325a2.346 2.346 0 0 0-2.325 2.325 2.346 2.346 0 0 0 2.325 2.326"/></g><g clip-path="url(#jhmra)"><path fill="#7d7d7d" d="M26.916 15.995a2.346 2.346 0 0 0-2.325 2.325 2.346 2.346 0 0 0 2.325 2.325 2.346 2.346 0 0 0 2.325-2.325c0-1.268-.987-2.325-2.325-2.325"/></g><g clip-path="url(#jhmra)"><path fill="#fff" d="M5.601 4.383c.175.052.337.134.483.242.105.087.19.197.249.32.05.121.075.252.071.383-.009.086-.042.264-.042.264H4.905a.38.38 0 0 0-.008-.193.441.441 0 0 0-.147-.15.538.538 0 0 0-.27-.083.74.74 0 0 0-.28.035.397.397 0 0 0-.276.269c-.008.099.005.134.039.169a.576.576 0 0 0 .287.115c.293.058.555.114.555.114s.31.071.469.115c.137.037.27.095.391.17a.98.98 0 0 1 .256.22c.072.09.122.196.143.31a.705.705 0 0 1 .003.263c-.012.113-.04.225-.083.33-.036.113-.086.22-.148.32a2.011 2.011 0 0 1-.252.327 2.36 2.36 0 0 1-.279.238 2.312 2.312 0 0 1-.442.239c-.15.057-.304.105-.461.143a5.09 5.09 0 0 1-.546.082c-.238.01-.476.006-.714-.013a2.979 2.979 0 0 1-.49-.093 2.685 2.685 0 0 1-.406-.177 1.309 1.309 0 0 1-.29-.256.859.859 0 0 1-.146-.252.898.898 0 0 1-.034-.266c0-.101.044-.406.044-.406h1.521a.564.564 0 0 0-.015.128.364.364 0 0 0 .044.165c.037.08.107.14.193.16a.749.749 0 0 0 .176.03c.086.006.172 0 .256-.014a.654.654 0 0 0 .383-.199c.048-.069.1-.157.072-.227-.027-.07-.02-.052-.074-.107a.315.315 0 0 0-.158-.087 2.534 2.534 0 0 0-.33-.079c-.107-.018-.541-.113-.46-.09A4.298 4.298 0 0 1 2.95 6.7a1.17 1.17 0 0 1-.356-.206.86.86 0 0 1-.204-.236.519.519 0 0 1-.073-.274 1.554 1.554 0 0 1 .128-.592 1.88 1.88 0 0 1 .163-.277c.08-.094.163-.184.251-.269.107-.085.22-.162.34-.228.131-.069.27-.126.412-.171.286-.102.587-.157.89-.164.193-.009.386-.005.578.01.176.021.35.05.522.09"/></g><g clip-path="url(#jhmra)"><path fill="#fff" d="M10.647 8.52l1.61.009 1.504-5.355h-1.61z"/></g><g clip-path="url(#jhmra)"><path fill="#fff" d="M11.067 5.5c.02.176.02.353 0 .529a2.935 2.935 0 0 1-.147.6 5.03 5.03 0 0 1-.266.573c-.05.08-.187.276-.291.407a1.74 1.74 0 0 1-.258.262 3.21 3.21 0 0 1-.538.387c-.16.1-.334.177-.513.231a3.208 3.208 0 0 1-.434.096 3.36 3.36 0 0 1-.92.025 1.55 1.55 0 0 1-.413-.08 1.658 1.658 0 0 1-.378-.176 1.061 1.061 0 0 1-.372-.374 2.124 2.124 0 0 1-.136-.27 1.841 1.841 0 0 1-.09-.374 2.29 2.29 0 0 1 .005-.422c.012-.14.039-.277.078-.41.033-.133.077-.263.129-.39.16-.38.397-.724.694-1.012.138-.146.296-.273.467-.378.136-.09.28-.167.434-.226.13-.05.265-.093.401-.126 0 0 .227-.056.343-.07.135-.018.271-.028.408-.03.295-.006.589.037.87.125.26.101.492.264.675.473.085.102.15.22.192.347.03.09.05.186.06.282zm-1.622.624a.916.916 0 0 0-.017-.317.61.61 0 0 0-.15-.263.51.51 0 0 0-.356-.113.868.868 0 0 0-.23.057.627.627 0 0 0-.142.087.853.853 0 0 0-.168.158 1.718 1.718 0 0 0-.286.453c-.031.068-.06.148-.071.182a1.817 1.817 0 0 0-.097.399 1.482 1.482 0 0 0-.007.185s.004.086.014.138a.481.481 0 0 0 .166.303c.032.029.07.05.111.061a.562.562 0 0 0 .264.036.531.531 0 0 0 .3-.11 1.191 1.191 0 0 0 .284-.272c.041-.058.098-.146.12-.182.02-.036.091-.181.126-.263.036-.092.068-.187.093-.283.022-.084.037-.169.046-.255z"/></g><g clip-path="url(#jhmra)"><path fill="#fff" d="M17.765 5.52c.02.175.02.352 0 .528a2.872 2.872 0 0 1-.146.599 4.812 4.812 0 0 1-.267.573c-.05.081-.187.277-.292.408a1.697 1.697 0 0 1-.256.262 3.27 3.27 0 0 1-.539.387c-.16.1-.333.177-.513.231a3.272 3.272 0 0 1-.433.096 3.153 3.153 0 0 1-.921.025 1.555 1.555 0 0 1-.413-.08 1.627 1.627 0 0 1-.377-.177A1.057 1.057 0 0 1 13.235 8a2.133 2.133 0 0 1-.137-.272 1.825 1.825 0 0 1-.09-.372 2.353 2.353 0 0 1 .083-.832 2.748 2.748 0 0 1 .455-.974c.108-.155.231-.298.368-.428.14-.143.298-.27.468-.378.135-.091.28-.167.432-.226.132-.05.266-.093.403-.126 0 0 .227-.055.342-.07.136-.018.272-.028.408-.03.295-.006.59.037.871.125.26.102.49.264.674.473.086.102.15.22.192.348.03.09.05.185.06.28zm-1.628.604a.912.912 0 0 0 .008-.139.72.72 0 0 0-.024-.178.615.615 0 0 0-.151-.264.517.517 0 0 0-.46-.096.606.606 0 0 0-.268.128.883.883 0 0 0-.167.157 1.722 1.722 0 0 0-.287.454c-.031.068-.06.148-.071.182a1.864 1.864 0 0 0-.058.195c-.016.067-.03.135-.038.204a1.469 1.469 0 0 0-.007.185c.002.046.007.093.014.138a.484.484 0 0 0 .166.304.566.566 0 0 0 .376.096.528.528 0 0 0 .299-.11 1.23 1.23 0 0 0 .284-.272c.042-.058.097-.145.118-.182a2.371 2.371 0 0 0 .22-.546c.022-.084.038-.169.047-.256z"/></g><g clip-path="url(#jhmra)"><path fill="#fff" d="M17.304 3.742a.29.29 0 0 1 .292.288v.004a.302.302 0 0 1-.306.298.295.295 0 0 1 .001-.59zm-.01.617a.328.328 0 0 0 .328-.33v-.008a.316.316 0 0 0-.327-.306h-.005a.321.321 0 1 0 0 .644z"/></g><g clip-path="url(#jhmra)"><path fill="#fff" d="M17.142 4.22V3.84h.162c.03-.001.06.002.089.01.019.007.033.02.044.037a.11.11 0 0 1 .017.06.102.102 0 0 1-.025.072.122.122 0 0 1-.076.035.18.18 0 0 1 .041.032c.016.02.031.04.044.062l.046.074h-.092l-.056-.083a.44.44 0 0 0-.04-.055.073.073 0 0 0-.022-.017.128.128 0 0 0-.04-.004h-.015v.16zm.077-.22h.057c.023.001.046 0 .069-.004a.04.04 0 0 0 .022-.016.05.05 0 0 0 .007-.029.045.045 0 0 0-.04-.047H17.219V4z"/></g></g></g></svg>