<svg xmlns="http://www.w3.org/2000/svg" width="49" height="29" viewBox="0 0 49 29"><defs><clipPath id="rzxga"><path d="M.046 28.61V.333H49.11V28.61z"/></clipPath></defs><g><g><g/><g clip-path="url(#rzxga)"><path d="M41.398 23.469a2.571 2.571 0 1 0 2.57 2.57zm-16.71 0a2.57 2.57 0 1 0 2.572 2.57zM40.113 9.33v7.712h5.142v-1.928L41.398 9.33zm0-1.285h1.286c.43 0 .805.205 1.044.562l3.856 5.784c.14.21.241.47.241.723v1.928c0 .71-.574 1.285-1.285 1.285h-5.142c-.71 0-1.285-.574-1.285-1.285V9.33c0-.71.575-1.285 1.285-1.285zm-2.57-1.285zm0 8.996a3.86 3.86 0 0 1-3.856 3.857H16.977v3.856c0 .71.576 1.285 1.286 1.285h1.445c.575-2.213 2.592-3.856 4.98-3.856 2.388 0 4.367 1.643 4.941 3.856h6.788a5.159 5.159 0 0 1 4.98-3.856c2.388 0 4.366 1.643 4.94 3.856h1.488c.71 0 1.285-.575 1.285-1.285v-7.712c0-.253-.101-.512-.241-.723l-5.142-7.711a1.233 1.233 0 0 0-1.044-.563h-5.141zM14.407.333c-.71 0-1.285.574-1.285 1.285v.522H7.98a1.293 1.293 0 1 0 0 2.57h5.142V7H3.924a1.287 1.287 0 1 0-.013 2.571h9.211v2.45H1.392a1.287 1.287 0 1 0 0 2.57h11.73v1.165c0 .711.575 1.286 1.285 1.286h19.28c.71 0 1.285-.575 1.285-1.286V1.618c0-.71-.575-1.285-1.286-1.285z"/></g></g></g></svg>