<svg xmlns="http://www.w3.org/2000/svg" xmlns:xlink="http://www.w3.org/1999/xlink" width="34.178" height="51.351" viewBox="0 0 34.178 51.351"><defs><clipPath id="a"><rect width="34.178" height="51.351" fill="none"/></clipPath></defs><g clip-path="url(#a)"><path d="M14.269,57.2a3.957,3.957,0,0,0-1.728-.725l-2.4-.279L5.85,74.655l4.126-3.234a.535.535,0,0,1,.5-.112.75.75,0,0,1,.39.335l2.063,4.572L16.89,59.155c-.056-.056-.112-.056-.167-.112Z" transform="translate(-2.588 -24.866)"/><path d="M39.8,56.535a3.959,3.959,0,0,0-1.729.725L35.617,59.1c-.056.055-.112.055-.167.111l3.959,17.005,2.063-4.571a.589.589,0,0,1,.39-.335.569.569,0,0,1,.5.112l4.126,3.234L42.2,56.2Z" transform="translate(-15.685 -24.866)"/><path d="M31.474,12.322a4.61,4.61,0,0,1-.892-2.23l-.446-3.067a3.785,3.785,0,0,0-3.178-3.178L23.891,3.4a5.529,5.529,0,0,1-2.23-.892L19.263.725a3.794,3.794,0,0,0-4.46,0L12.35,2.565a4.61,4.61,0,0,1-2.23.892L7.109,3.9A3.785,3.785,0,0,0,3.931,7.081l-.446,3.067a5.529,5.529,0,0,1-.892,2.23L.753,14.831a3.68,3.68,0,0,0,0,4.46l1.84,2.453a4.61,4.61,0,0,1,.892,2.23l.446,3.067a3.785,3.785,0,0,0,3.178,3.178l3.067.446a5.529,5.529,0,0,1,2.23.892l2.453,1.84a3.68,3.68,0,0,0,4.46,0l2.453-1.84A4.61,4.61,0,0,1,24,30.665l3.067-.446a3.785,3.785,0,0,0,3.178-3.178l.446-3.067a5.529,5.529,0,0,1,.892-2.23l1.84-2.453a3.68,3.68,0,0,0,0-4.46ZM17.033,29.216a12.21,12.21,0,1,1,12.21-12.21,12.207,12.207,0,0,1-12.21,12.21" transform="translate(0 0)"/><path d="M21.745,10.6a11.1,11.1,0,1,0,11.1,11.1,11.088,11.088,0,0,0-11.1-11.1m4.962,18.065-4.962-2.62-4.962,2.62.947-5.52-4.014-3.9,5.52-.781,2.453-5.018,2.453,5.018,5.52.781-4.014,3.9Z" transform="translate(-4.712 -4.69)"/></g></svg>