<svg xmlns="http://www.w3.org/2000/svg" width="38" height="31" viewBox="0 0 38 31"><g><g clip-path="url(#clip-b0d1a5e6-cd92-48f2-9557-60a6881176ac)"><path d="M27.753 19.938a5.869 5.869 0 0 0-5.866-5.866h-7.835l1.413-1.412a1.286 1.286 0 1 0-1.816-1.824l-3.605 3.613c-.12.12-.216.263-.282.42 0 .008 0 .008-.009.017-.055.15-.084.31-.086.47.002.158.031.316.086.463.007.007.01.017.009.026.068.156.164.298.282.42l3.605 3.605a1.284 1.284 0 1 0 1.815-1.815l-1.412-1.414h7.835a3.297 3.297 0 0 1 0 6.594H10.952a1.285 1.285 0 0 0 0 2.569h10.935zm9.667 9.9a.856.856 0 0 1-.856.857H.856A.856.856 0 0 1 0 29.839V7.633c0-.473.383-.856.856-.856h35.708c.473 0 .856.383.856.856zM35.537 4.21H1.884L5.97.242A.854.854 0 0 1 6.568 0h24.286c.224 0 .44.086.6.242z"/></g></g></svg>