<svg xmlns="http://www.w3.org/2000/svg" width="118" height="40.381" viewBox="0 0 118 40.381">
  <g id="Сгруппировать_268" data-name="Сгруппировать 268" transform="translate(-221.463 -14.722)">
    <path id="Контур_11" data-name="Контур 11" d="M249.666,26a11.3,11.3,0,0,1,3.564,1.782,7.046,7.046,0,0,1,1.833,2.357,7.029,7.029,0,0,1,.524,2.83c-.069.628-.315,1.939-.315,1.939H244.531a2.785,2.785,0,0,0-.053-1.414,3.282,3.282,0,0,0-1.091-1.106,3.964,3.964,0,0,0-1.982-.621,5.464,5.464,0,0,0-2.062.259,2.931,2.931,0,0,0-2.04,1.986c-.059.727.033.992.285,1.244a4.25,4.25,0,0,0,2.115.848c2.165.433,4.094.843,4.094.843s2.277.523,3.458.844a10.951,10.951,0,0,1,2.881,1.257,7.3,7.3,0,0,1,1.887,1.625,5.1,5.1,0,0,1,1.056,2.278,5.216,5.216,0,0,1,.026,1.942,8.917,8.917,0,0,1-.611,2.434,10.51,10.51,0,0,1-1.1,2.36,14.759,14.759,0,0,1-1.851,2.41,18.3,18.3,0,0,1-2.063,1.757,17.072,17.072,0,0,1-3.264,1.759,27.69,27.69,0,0,1-3.393,1.063,37.024,37.024,0,0,1-4.024.6,42.166,42.166,0,0,1-5.265-.094,22.025,22.025,0,0,1-3.616-.681,19.335,19.335,0,0,1-2.988-1.31,9.579,9.579,0,0,1-2.148-1.887,6.269,6.269,0,0,1-1.069-1.857,6.7,6.7,0,0,1-.253-1.968c0-.738.326-2.988.326-2.988H233a3.888,3.888,0,0,0-.105.944,2.65,2.65,0,0,0,.32,1.217,2.133,2.133,0,0,0,1.417,1.186,5.822,5.822,0,0,0,1.3.216,8.173,8.173,0,0,0,1.887-.1,5.687,5.687,0,0,0,1.414-.419,4.915,4.915,0,0,0,1.415-1.048c.347-.5.725-1.155.524-1.676s-.144-.382-.544-.788a2.292,2.292,0,0,0-1.167-.64,17.845,17.845,0,0,0-2.438-.582c-.78-.136-3.982-.838-3.4-.664a32.025,32.025,0,0,1-3.511-1.047A8.7,8.7,0,0,1,227.5,41.56a6.4,6.4,0,0,1-1.5-1.743,3.813,3.813,0,0,1-.542-2.012,10.993,10.993,0,0,1,.212-2.073,11.619,11.619,0,0,1,.731-2.294,13.927,13.927,0,0,1,1.2-2.044,23.787,23.787,0,0,1,1.849-1.98,18.063,18.063,0,0,1,2.5-1.687,19.247,19.247,0,0,1,3.038-1.257,21.02,21.02,0,0,1,6.568-1.21,33.488,33.488,0,0,1,4.258.078,37.17,37.17,0,0,1,3.845.659" transform="translate(0 -2.36)" fill="#ffffff"/>
    <path id="Контур_12" data-name="Контур 12" d="M305.816,54.138l11.871.065,11.094-39.481H316.913Z" transform="translate(-18.946)" fill="#ffffff"/>
    <path id="Контур_13" data-name="Контур 13" d="M287.689,38.821a14.239,14.239,0,0,1-.343,1.883,16.636,16.636,0,0,1-.7,2.08c-.251.6-.775,1.675-.932,1.942s-.571.916-.879,1.342a5.979,5.979,0,0,1-.709.835,8.74,8.74,0,0,1-1.383,1.176,4,4,0,0,1-1.23.628,4.669,4.669,0,0,1-.972.175,4.124,4.124,0,0,1-.982-.011,4.249,4.249,0,0,1-.972-.252,2.17,2.17,0,0,1-.816-.444,3.167,3.167,0,0,1-.679-.772,3.511,3.511,0,0,1-.543-1.471c-.071-.384-.109-1.02-.109-1.02a10.476,10.476,0,0,1,.05-1.362,14.716,14.716,0,0,1,.284-1.505,12.861,12.861,0,0,1,.433-1.435c.086-.253.3-.839.52-1.339a13.166,13.166,0,0,1,1.065-1.954,10.45,10.45,0,0,1,1.051-1.385,6.548,6.548,0,0,1,1.229-1.167,4.8,4.8,0,0,1,1.057-.641,5.164,5.164,0,0,1,.928-.3,6.526,6.526,0,0,1,.765-.121,5.017,5.017,0,0,1,.877.049,3.753,3.753,0,0,1,1.751.782,4.527,4.527,0,0,1,1.112,1.942,5.159,5.159,0,0,1,.178,1.313,7.274,7.274,0,0,1-.056,1.027m11.957-4.615a9.093,9.093,0,0,0-.442-2.077,7.845,7.845,0,0,0-1.413-2.562,12.9,12.9,0,0,0-4.971-3.486,20.449,20.449,0,0,0-6.42-.929,28.832,28.832,0,0,0-3.006.223c-.853.111-2.523.52-2.523.52a24.056,24.056,0,0,0-2.967.93,16.547,16.547,0,0,0-3.192,1.669,17,17,0,0,0-3.451,2.783,22.934,22.934,0,0,0-5.121,7.459,22.612,22.612,0,0,0-.945,2.879,16.083,16.083,0,0,0-.577,3.02,17.738,17.738,0,0,0-.036,3.118,13.513,13.513,0,0,0,.668,2.746,15.4,15.4,0,0,0,1,2A7.828,7.828,0,0,0,269,55.247a12.014,12.014,0,0,0,2.782,1.3,11.355,11.355,0,0,0,3.043.593,24.242,24.242,0,0,0,3.451.15,23.61,23.61,0,0,0,3.341-.334,24.522,24.522,0,0,0,3.191-.7,15.9,15.9,0,0,0,3.785-1.707,23.887,23.887,0,0,0,3.97-2.857,12.946,12.946,0,0,0,1.893-1.931c.779-.966,1.783-2.41,2.152-3.005a37.1,37.1,0,0,0,1.967-4.229,21.324,21.324,0,0,0,1.075-4.416,16.991,16.991,0,0,0,0-3.9" transform="translate(-9.673 -2.342)" fill="#ffffff"/>
    <path id="Контур_14" data-name="Контур 14" d="M351.331,38.861a13.928,13.928,0,0,1-.34,1.884,16.785,16.785,0,0,1-.7,2.079c-.251.6-.775,1.676-.932,1.944s-.57.916-.878,1.342a6.047,6.047,0,0,1-.71.835,8.739,8.739,0,0,1-1.384,1.174,3.937,3.937,0,0,1-1.23.63,4.654,4.654,0,0,1-.972.175,4.2,4.2,0,0,1-.981-.011,4.151,4.151,0,0,1-.972-.252,2.171,2.171,0,0,1-.816-.444,3.119,3.119,0,0,1-.679-.772,3.468,3.468,0,0,1-.543-1.471,10.034,10.034,0,0,1-.11-1.02,10.693,10.693,0,0,1,.051-1.362,14.324,14.324,0,0,1,.285-1.505,12.884,12.884,0,0,1,.429-1.428c.086-.249.3-.841.523-1.344a12.925,12.925,0,0,1,1.067-1.956,10.225,10.225,0,0,1,1.051-1.385,6.542,6.542,0,0,1,1.228-1.167,4.715,4.715,0,0,1,1.058-.641,5.133,5.133,0,0,1,.928-.3,6.485,6.485,0,0,1,.766-.119,4.943,4.943,0,0,1,.876.047,3.784,3.784,0,0,1,1.75.782,4.534,4.534,0,0,1,1.111,1.944,5.062,5.062,0,0,1,.178,1.311,7.01,7.01,0,0,1-.058,1.027m11.994-4.469a9.134,9.134,0,0,0-.444-2.076,7.848,7.848,0,0,0-1.414-2.562,12.88,12.88,0,0,0-4.97-3.488,20.5,20.5,0,0,0-6.422-.929,28.749,28.749,0,0,0-3,.223c-.854.112-2.525.52-2.525.52a24.323,24.323,0,0,0-2.967.928,16.58,16.58,0,0,0-3.192,1.671,19.779,19.779,0,0,0-3.451,2.783,20.488,20.488,0,0,0-2.71,3.154,20.256,20.256,0,0,0-2.41,4.3,22.135,22.135,0,0,0-.946,2.878,16.076,16.076,0,0,0-.576,3.023,17.768,17.768,0,0,0-.039,3.116,13.39,13.39,0,0,0,.67,2.746,15.264,15.264,0,0,0,1,2,7.8,7.8,0,0,0,2.746,2.746,11.981,11.981,0,0,0,2.783,1.3,11.378,11.378,0,0,0,3.043.593,24.424,24.424,0,0,0,3.451.148,23.6,23.6,0,0,0,3.34-.334,24.067,24.067,0,0,0,3.19-.7,15.9,15.9,0,0,0,3.785-1.707,23.87,23.87,0,0,0,3.97-2.857,12.8,12.8,0,0,0,1.894-1.929c.778-.968,1.783-2.41,2.151-3.005a36.7,36.7,0,0,0,1.967-4.231,21.475,21.475,0,0,0,1.077-4.416,17.071,17.071,0,0,0,0-3.9" transform="translate(-23.974 -2.384)" fill="#ffffff"/>
    <path id="Контур_15" data-name="Контур 15" d="M368.294,24.619a2.372,2.372,0,0,1,.006-4.745h.037a2.329,2.329,0,0,1,2.408,2.315A2.423,2.423,0,0,1,368.294,24.619Zm.008-4.546a2.174,2.174,0,1,0-.006,4.348,2.226,2.226,0,0,0,2.252-2.225,2.138,2.138,0,0,0-2.211-2.123H368.3Z" transform="translate(-32.447 -1.157)" fill="#ffffff"/>
    <path id="Контур_16" data-name="Контур 16" d="M368.142,22.237h.42a2.156,2.156,0,0,0,.509-.034.324.324,0,0,0,.161-.119.374.374,0,0,0,.057-.212.334.334,0,0,0-.077-.23A.341.341,0,0,0,369,21.53c-.047-.006-.184-.009-.414-.009h-.444v.716m-.566,1.624V21.044h1.194a2.078,2.078,0,0,1,.656.075.656.656,0,0,1,.326.271.82.82,0,0,1,.124.445.756.756,0,0,1-.188.524.886.886,0,0,1-.555.261,1.3,1.3,0,0,1,.3.236,3.15,3.15,0,0,1,.323.457l.344.548h-.68l-.407-.613a3.835,3.835,0,0,0-.3-.413.464.464,0,0,0-.171-.117.967.967,0,0,0-.286-.032h-.116v1.174Z" transform="translate(-32.817 -1.42)" fill="#ffffff"/>
  </g>
</svg>
