<svg xmlns="http://www.w3.org/2000/svg" xmlns:xlink="http://www.w3.org/1999/xlink" width="30" height="26" viewBox="0 0 30 26"><defs><clipPath id="a"><rect width="30" height="26" transform="translate(0 0.474)" fill="#fff"/></clipPath></defs><g transform="translate(0 -0.474)" clip-path="url(#a)"><path d="M23.161.008a.982.982,0,0,1,.578.3L28.95,5.825a1.01,1.01,0,0,1-.03,1.358L12.373,23.4a.979.979,0,0,1-.385.233L8.774,24.655h9.835a.974.974,0,1,1-.1,1.946H.987a.973.973,0,1,1,0-1.946H3.623l1.267-7.307a.981.981,0,0,1,.284-.537L22.36.271a.988.988,0,0,1,.8-.263M23,2.372l-.707.686,4,4.084.649-.649C25.623,5.138,24.319,3.679,23,2.372M20.89,4.406,7.426,17.358l1.46,1.277L22.157,5.673Zm2.636,2.635L10.355,19.912l1.481,1.3,13.059-12.8ZM6.564,19.182l-.77,4.378,4.228-1.348Z" transform="translate(0 -0.128)" fill="#fff"/></g></svg>