<svg id="Group_313" data-name="Group 313" xmlns="http://www.w3.org/2000/svg" xmlns:xlink="http://www.w3.org/1999/xlink" width="32.412" height="20.645" viewBox="0 0 32.412 20.645">
  <defs>
    <clipPath id="clip-path">
      <rect id="Rectangle_171" data-name="Rectangle 171" width="32.412" height="20.645" fill="none"/>
    </clipPath>
  </defs>
  <g id="Group_313-2" data-name="Group 313" transform="translate(0 0)" clip-path="url(#clip-path)">
    <path id="Path_339" data-name="Path 339" d="M41.392,10.628,36.53,3.3H30.4V18.52h1.832A3.652,3.652,0,0,1,35.9,15.49a3.775,3.775,0,0,1,3.664,3.03h1.832ZM34.134,13.94H33.078a.493.493,0,1,1,0-.986h1.057a.493.493,0,1,1,0,.986m5.848-2.818H31.809V4.78h3.946Z" transform="translate(-8.98 -0.975)" fill="#7d7d7d"/>
    <path id="Path_340" data-name="Path 340" d="M5.778,20.4a3.775,3.775,0,0,1,3.664,3.03H20.151V19.7H0v3.734H2.114A3.775,3.775,0,0,1,5.778,20.4" transform="translate(0 -5.819)" fill="#7d7d7d"/>
    <path id="Path_341" data-name="Path 341" d="M0,1.973v10.5H20.152V1.2a1.235,1.235,0,0,0-1.2-1.2H1.973A1.969,1.969,0,0,0,0,1.973" transform="translate(0 0)" fill="#db3232"/>
    <path id="Path_342" data-name="Path 342" d="M7.225,27.25A2.326,2.326,0,1,0,4.9,24.925,2.346,2.346,0,0,0,7.225,27.25" transform="translate(-1.447 -6.675)" fill="#7d7d7d"/>
    <path id="Path_343" data-name="Path 343" d="M37.225,22.7a2.325,2.325,0,1,0,2.325,2.325A2.3,2.3,0,0,0,37.225,22.7" transform="translate(-10.309 -6.705)" fill="#7d7d7d"/>
    <path id="Path_344" data-name="Path 344" d="M6.346,6.177a1.534,1.534,0,0,1,.483.242.839.839,0,0,1,.32.7c-.009.085-.042.264-.042.264H5.649a.379.379,0,0,0-.008-.192.441.441,0,0,0-.147-.15.538.538,0,0,0-.269-.084.739.739,0,0,0-.28.035.4.4,0,0,0-.277.269c-.008.1,0,.135.039.169a.576.576,0,0,0,.287.115c.293.058.555.114.555.114s.309.071.469.115a1.485,1.485,0,0,1,.391.171.98.98,0,0,1,.256.22.693.693,0,0,1,.143.309.705.705,0,0,1,0,.264,1.206,1.206,0,0,1-.083.33,1.425,1.425,0,0,1-.149.321,2.013,2.013,0,0,1-.252.326,2.361,2.361,0,0,1-.279.238,2.312,2.312,0,0,1-.442.239,3.714,3.714,0,0,1-.461.144,5.09,5.09,0,0,1-.545.082,5.759,5.759,0,0,1-.714-.013,2.978,2.978,0,0,1-.49-.092,2.686,2.686,0,0,1-.405-.178A1.309,1.309,0,0,1,2.7,9.88a.859.859,0,0,1-.145-.252.9.9,0,0,1-.034-.266c0-.1.044-.406.044-.406H4.086a.564.564,0,0,0-.015.128.364.364,0,0,0,.044.165.288.288,0,0,0,.192.161.749.749,0,0,0,.176.03,1.078,1.078,0,0,0,.256-.014.769.769,0,0,0,.192-.057.654.654,0,0,0,.192-.142c.047-.069.1-.157.071-.228s-.02-.052-.073-.107A.315.315,0,0,0,4.962,8.8a2.533,2.533,0,0,0-.33-.079c-.106-.018-.54-.113-.46-.09A4.3,4.3,0,0,1,3.7,8.494a1.17,1.17,0,0,1-.356-.206.86.86,0,0,1-.2-.236.519.519,0,0,1-.073-.273,1.44,1.44,0,0,1,.029-.28,1.554,1.554,0,0,1,.1-.311,1.88,1.88,0,0,1,.163-.277A3.363,3.363,0,0,1,3.6,6.64a2.488,2.488,0,0,1,.34-.228,2.542,2.542,0,0,1,.412-.171,2.864,2.864,0,0,1,.891-.163,4.394,4.394,0,0,1,.578.011,4.826,4.826,0,0,1,.521.089" transform="translate(-0.745 -1.794)" fill="#fff"/>
    <path id="Path_345" data-name="Path 345" d="M15.11,9.85l1.61.009,1.5-5.355h-1.61Z" transform="translate(-4.463 -1.33)" fill="#fff"/>
    <path id="Path_346" data-name="Path 346" d="M12.088,7.916a1.745,1.745,0,0,1-.047.255,2.366,2.366,0,0,1-.093.283c-.035.082-.1.227-.126.264s-.078.124-.12.182a.782.782,0,0,1-.1.113,1.192,1.192,0,0,1-.187.159.531.531,0,0,1-.168.085.638.638,0,0,1-.132.024.562.562,0,0,1-.133,0,.6.6,0,0,1-.131-.035.286.286,0,0,1-.111-.061.408.408,0,0,1-.092-.1.481.481,0,0,1-.073-.2c-.01-.052-.015-.138-.015-.138a1.482,1.482,0,0,1,.008-.185,1.817,1.817,0,0,1,.038-.2,1.724,1.724,0,0,1,.058-.2c.011-.034.04-.113.071-.181a1.718,1.718,0,0,1,.144-.265,1.374,1.374,0,0,1,.142-.188.853.853,0,0,1,.168-.159.627.627,0,0,1,.143-.087.676.676,0,0,1,.125-.039.869.869,0,0,1,.1-.017.688.688,0,0,1,.12.007.509.509,0,0,1,.236.106.611.611,0,0,1,.151.264.635.635,0,0,1,.024.178.916.916,0,0,1-.007.14m1.622-.626a1.365,1.365,0,0,0-.06-.282,1.064,1.064,0,0,0-.192-.347,1.745,1.745,0,0,0-.674-.473,2.764,2.764,0,0,0-.871-.125,3.757,3.757,0,0,0-.408.03c-.116.015-.342.07-.342.07a3.234,3.234,0,0,0-.4.126,2.223,2.223,0,0,0-.433.226,2.282,2.282,0,0,0-.468.378A3.092,3.092,0,0,0,9.165,7.9a2.974,2.974,0,0,0-.128.39,2.086,2.086,0,0,0-.078.41,2.29,2.29,0,0,0,0,.423,1.842,1.842,0,0,0,.089.373,2.124,2.124,0,0,0,.137.271,1.061,1.061,0,0,0,.372.373,1.659,1.659,0,0,0,.378.175,1.55,1.55,0,0,0,.412.081,3.359,3.359,0,0,0,.469.02,3.133,3.133,0,0,0,.452-.045,3.209,3.209,0,0,0,.433-.1,2.14,2.14,0,0,0,.513-.231,3.211,3.211,0,0,0,.538-.388,1.74,1.74,0,0,0,.258-.261c.1-.131.241-.327.291-.407a5.031,5.031,0,0,0,.266-.574,2.936,2.936,0,0,0,.147-.6,2.454,2.454,0,0,0,0-.528" transform="translate(-2.643 -1.79)" fill="#fff"/>
    <path id="Path_347" data-name="Path 347" d="M21.588,7.923a1.834,1.834,0,0,1-.046.256,2.37,2.37,0,0,1-.094.283c-.035.082-.1.228-.127.264s-.077.124-.118.182a.882.882,0,0,1-.1.113,1.23,1.23,0,0,1-.188.159.528.528,0,0,1-.167.085.647.647,0,0,1-.132.024.561.561,0,0,1-.265-.035.3.3,0,0,1-.111-.061.434.434,0,0,1-.092-.1.484.484,0,0,1-.073-.2c-.007-.045-.012-.092-.015-.138a1.47,1.47,0,0,1,.007-.185,1.832,1.832,0,0,1,.039-.2,1.863,1.863,0,0,1,.057-.194c.012-.034.04-.114.071-.182a1.723,1.723,0,0,1,.144-.265,1.371,1.371,0,0,1,.143-.189.883.883,0,0,1,.166-.158.606.606,0,0,1,.143-.087.724.724,0,0,1,.125-.041,1.035,1.035,0,0,1,.1-.016.75.75,0,0,1,.119.006.517.517,0,0,1,.237.106.615.615,0,0,1,.151.264.721.721,0,0,1,.025.178.912.912,0,0,1-.008.139m1.627-.606a1.273,1.273,0,0,0-.06-.281,1.072,1.072,0,0,0-.192-.348,1.758,1.758,0,0,0-.674-.473,2.784,2.784,0,0,0-.871-.125,3.757,3.757,0,0,0-.408.03c-.116.016-.342.07-.342.07a3.325,3.325,0,0,0-.4.125,2.221,2.221,0,0,0-.433.227,2.654,2.654,0,0,0-.468.378A2.794,2.794,0,0,0,19,7.347a2.749,2.749,0,0,0-.327.584,3.011,3.011,0,0,0-.128.39,2.194,2.194,0,0,0-.078.41,2.353,2.353,0,0,0,0,.423,1.826,1.826,0,0,0,.09.372,2.133,2.133,0,0,0,.137.272,1.057,1.057,0,0,0,.373.373,1.627,1.627,0,0,0,.377.176,1.555,1.555,0,0,0,.413.081,3.344,3.344,0,0,0,.468.02,3.153,3.153,0,0,0,.453-.045,3.273,3.273,0,0,0,.433-.1,2.158,2.158,0,0,0,.514-.231,3.27,3.27,0,0,0,.538-.388,1.7,1.7,0,0,0,.256-.261c.1-.131.242-.327.292-.408a4.812,4.812,0,0,0,.267-.574,2.871,2.871,0,0,0,.147-.6,2.367,2.367,0,0,0,0-.528" transform="translate(-5.45 -1.798)" fill="#fff"/>
    <path id="Path_348" data-name="Path 348" d="M24.4,5.916a.322.322,0,0,1,0-.643h.006a.316.316,0,0,1,.326.305v.008a.328.328,0,0,1-.328.33Zm0-.617a.295.295,0,0,0,0,.59.3.3,0,0,0,.306-.3v0a.29.29,0,0,0-.292-.288H24.4Z" transform="translate(-7.114 -1.558)" fill="#fff"/>
    <path id="Path_349" data-name="Path 349" d="M24.4,5.61h.057a.322.322,0,0,0,.069,0,.039.039,0,0,0,.022-.016.05.05,0,0,0,.008-.028.047.047,0,0,0-.011-.032.045.045,0,0,0-.029-.016H24.4v.1m-.077.22V5.448h.162a.292.292,0,0,1,.089.011.087.087,0,0,1,.044.037.11.11,0,0,1,.017.061.1.1,0,0,1-.025.071.122.122,0,0,1-.075.035.18.18,0,0,1,.041.032.392.392,0,0,1,.044.062l.047.074h-.092l-.056-.083a.441.441,0,0,0-.039-.056.073.073,0,0,0-.023-.016.128.128,0,0,0-.039,0H24.4v.159Z" transform="translate(-7.186 -1.609)" fill="#fff"/>
  </g>
</svg>
