<svg xmlns="http://www.w3.org/2000/svg" width="25.15" height="20.63" viewBox="0 0 25.15 20.63">
  <g id="Group_318" data-name="Group 318" transform="translate(-10.15 -14.078)">
    <path id="Path_180" data-name="Path 180" d="M34.034,16.907H11.416l2.746-2.666a.575.575,0,0,1,.4-.163H30.887a.575.575,0,0,1,.4.163Zm1.266,2.3V34.132a.576.576,0,0,1-.576.576h-24a.576.576,0,0,1-.576-.576V19.208a.576.576,0,0,1,.576-.576h24a.576.576,0,0,1,.576.576Zm-6.5,8.269a3.945,3.945,0,0,0-3.942-3.942H19.594l.95-.95a.865.865,0,1,0-1.22-1.226h0L16.9,23.789a.877.877,0,0,0-.19.282c0,.006,0,.006-.006.012a.928.928,0,0,0-.058.317.9.9,0,0,0,.058.311.021.021,0,0,1,.006.017.936.936,0,0,0,.19.282l2.423,2.423a.863.863,0,0,0,1.22-1.22l-.95-.95H24.86a2.216,2.216,0,1,1,0,4.431H17.511a.863.863,0,1,0,0,1.727H24.86A3.945,3.945,0,0,0,28.8,27.478Z" transform="translate(0 0)" fill="#7d7d7d"/>
  </g>
</svg>
