<svg xmlns="http://www.w3.org/2000/svg" width="20.764" height="24.178" viewBox="0 0 20.764 24.178">
  <g id="Group_317" data-name="Group 317" transform="translate(-14.456 -8.7)">
    <g id="Group_26" data-name="Group 26" transform="translate(14.456 8.7)">
      <path id="Path_177" data-name="Path 177" d="M27.112,23.89a2.645,2.645,0,0,1-1.317.849.364.364,0,0,0-.322.41v.7a.293.293,0,0,1-.322.322H24.39c-.2,0-.322-.117-.322-.351v-.5c0-.38-.029-.38-.38-.439a4.024,4.024,0,0,1-1.317-.38c-.322-.146-.351-.234-.263-.585a5.781,5.781,0,0,1,.234-.761c.088-.293.176-.322.439-.2a4.438,4.438,0,0,0,1.463.439,2.148,2.148,0,0,0,.966-.117.743.743,0,0,0,.176-1.317,2.119,2.119,0,0,0-.556-.322c-.5-.234-1.024-.38-1.522-.673a2.168,2.168,0,0,1-1.2-2.049,2.25,2.25,0,0,1,1.639-2.078c.41-.146.41-.146.41-.556v-.439c0-.322.059-.38.38-.38h.293c.673,0,.673,0,.673.673,0,.468,0,.468.468.556a4.833,4.833,0,0,1,1.054.322.316.316,0,0,1,.2.41l-.263.878c-.088.263-.176.322-.439.176a3.28,3.28,0,0,0-1.668-.322,1.174,1.174,0,0,0-.439.088.62.62,0,0,0-.146,1.112,2.956,2.956,0,0,0,.732.41,12.952,12.952,0,0,1,1.317.585A2.3,2.3,0,0,1,27.112,23.89ZM35.22,17.8c0,1.551,0,3.073-.059,4.624a8.566,8.566,0,0,1-1.756,4.624,15.674,15.674,0,0,1-5.473,4.507c-.907.468-1.844.849-2.78,1.259a.8.8,0,0,1-.527.029,19.639,19.639,0,0,1-7.2-4.478,9.559,9.559,0,0,1-2.693-4.6,10.128,10.128,0,0,1-.263-2.107c-.029-2.81,0-5.649,0-8.459,0-.527.088-.644.615-.673a18.124,18.124,0,0,0,9.249-3.571c.5-.351.527-.351,1.024,0a19.4,19.4,0,0,0,6.907,3.22c.79.176,1.61.234,2.429.351.38.059.527.176.527.556ZM32.7,20.788a7.844,7.844,0,1,0-7.844,7.844A7.844,7.844,0,0,0,32.7,20.788Z" transform="translate(-14.456 -8.7)" fill="#7d7d7d"/>
    </g>
  </g>
</svg>
