<svg xmlns="http://www.w3.org/2000/svg" width="98" height="61" viewBox="0 0 98 61"><g><g><path fill="#f6f7fc" d="M28.08 46.295V14.662l28 15.555zM67.793 0H11.635C5.22 0 0 5.22 0 11.635v37.233c0 6.415 5.22 11.635 11.635 11.635h56.16c6.414 0 11.634-5.22 11.634-11.635V11.635C79.43 5.22 74.21 0 67.794 0z"/></g><g><path fill="#f6f7fc" d="M46.08 46.295V14.662l28 15.555zM85.793 0H29.635C23.22 0 18 5.22 18 11.635v37.233c0 6.415 5.22 11.635 11.635 11.635h56.16c6.414 0 11.634-5.22 11.634-11.635V11.635C97.43 5.22 92.21 0 85.794 0z"/></g></g></svg>