<svg xmlns="http://www.w3.org/2000/svg" xmlns:xlink="http://www.w3.org/1999/xlink" width="31" height="44" viewBox="0 0 31 44">
    <defs>
        <clipPath id="clip-path">
            <rect id="Rectangle_172" data-name="Rectangle 172" width="31" height="44" transform="translate(0.274 -0.216)" fill="none"/>
        </clipPath>
    </defs>
    <g id="Group_323" data-name="Group 323" transform="translate(-0.274 0.216)">
        <g id="Group_323-2" data-name="Group 323" clip-path="url(#clip-path)">
            <path id="Path_350" data-name="Path 350" d="M144.6,2.461q.089.056.176.117l.032.023q.075.053.148.111l.043.033c.046.037.09.075.135.113l.043.037c.057.051.112.1.166.157s.11.116.161.178l.045.056q.055.07.107.144l.041.059c.044.066.086.133.126.2l.025.047q.046.085.089.173l.041.087c.022.049.044.1.065.15.012.03.025.06.037.09q.043.109.081.223c.013.038.024.076.036.114s.028.088.041.133.026.09.038.136.02.076.03.115q.069.273.122.56l.012.065q.018.1.035.2l0,.016q.037.229.068.464a11.123,11.123,0,0,1,.292-1.471l0-.015a5.416,5.416,0,0,1,.292-.8l.017-.037c.038-.079.077-.156.119-.231v0q.064-.114.136-.22l.026-.037q.058-.084.121-.163l.038-.047c.051-.062.1-.122.161-.178h0l0,0c.053-.053.108-.1.164-.155l.05-.043c.042-.036.084-.072.127-.107l.053-.041q.067-.052.136-.1l.046-.033q.079-.055.159-.105l.028-.018a4.133,4.133,0,0,1,.851-.4l.007,0a2.961,2.961,0,0,0-5.638-.01,4.135,4.135,0,0,1,.855.406l.009.006" transform="translate(-130.423)"/>
            <path id="Path_351" data-name="Path 351" d="M94.012,33.877l.005.018q.032.108.071.213l0,.009q.038.1.083.2l.005.012q.047.1.1.2h0c.034.063.071.124.109.185l.016.025c.04.061.081.121.125.18l.006.008c.04.053.081.1.125.154l.034.04c.046.052.093.1.142.152l0,0c.765.765,2.448.938,4.076,1.1.233.024.472.048.709.075a1.824,1.824,0,0,1,.988-.991c-.016-.149-.031-.3-.045-.446v0l-.031-.317c-.145-1.5-.294-3.058-.947-3.88a1.791,1.791,0,0,0-.137-.154c-.05-.05-.1-.1-.154-.144l-.037-.032c-.052-.044-.1-.087-.158-.128l0,0q-.091-.068-.186-.129l-.01-.006a3.247,3.247,0,0,0-1.052-.437,3.289,3.289,0,0,0-.707-.077,3.261,3.261,0,0,0-3.261,3.261,3.291,3.291,0,0,0,.078.709q.021.1.048.192" transform="translate(-85.192 -26.962)"/>
            <path id="Path_352" data-name="Path 352" d="M184.063,259.62a3.007,3.007,0,0,0-2.78,2.055,4.228,4.228,0,0,0-.237,1.216,4.3,4.3,0,0,0,1.1.149h0l.107,0A3.01,3.01,0,0,0,185.092,261a4.211,4.211,0,0,0,.244-1.235,4.192,4.192,0,0,0-1.273-.145" transform="translate(-164.281 -235.575)"/>
            <path id="Path_353" data-name="Path 353" d="M183.572,30.177a3.256,3.256,0,0,0-.392.213l-.022.014c-.062.04-.123.082-.182.126l0,0c-.054.041-.107.084-.159.128l-.037.032c-.053.047-.105.094-.155.145l-.023.024c-.747.777-.917,2.445-1.082,4.059-.024.231-.048.467-.074.7a1.824,1.824,0,0,1,.989.988l.446-.045h0l.318-.031c1.605-.155,3.265-.314,4.035-1.084.049-.049.1-.1.143-.153l.037-.043q.054-.064.105-.131l.027-.035q.061-.082.116-.166l.028-.045q.041-.065.078-.132c.011-.02.022-.039.033-.059.03-.055.058-.111.085-.168.01-.022.019-.045.029-.067q.024-.056.047-.113t.035-.091c.011-.032.022-.064.032-.1q.028-.087.051-.175c.006-.024.013-.048.018-.072a3.261,3.261,0,0,0-3.88-3.943c-.065.014-.13.031-.193.049l-.017,0q-.108.032-.214.071l-.007,0q-.1.039-.2.084l-.01,0" transform="translate(-164.641 -27.116)"/>
            <path id="Path_354" data-name="Path 354" d="M66.052,85.022a4.134,4.134,0,0,1,.406-.855l.006-.009q.056-.089.117-.176l.023-.032q.053-.075.111-.148l.033-.043c.037-.046.075-.09.114-.135l.037-.043c.051-.056.1-.112.157-.166s.116-.11.178-.161l.056-.045q.07-.055.144-.107l.059-.041c.066-.044.134-.086.2-.126l.047-.025c.057-.031.114-.061.173-.089L68,82.782q.074-.034.151-.065l.09-.037q.11-.043.223-.081l.114-.036.134-.041.135-.038.116-.03q.273-.069.559-.122l.065-.012.2-.035.017,0q.229-.037.463-.068a11.11,11.11,0,0,1-1.471-.292l-.019-.005c-.192-.055-.378-.116-.555-.187h0c-.083-.033-.164-.068-.243-.1l-.036-.017a3.593,3.593,0,0,1-.452-.255l-.036-.025q-.084-.058-.163-.121l-.046-.037c-.062-.051-.122-.1-.178-.161h0l0,0c-.053-.053-.1-.108-.155-.164l-.042-.049c-.037-.042-.073-.085-.108-.128l-.041-.052q-.052-.067-.1-.136l-.032-.046q-.055-.079-.106-.16l-.017-.027a4.131,4.131,0,0,1-.4-.851l0-.007a2.961,2.961,0,0,0-.01,5.638" transform="translate(-58.076 -72.033)"/>
            <path id="Path_355" data-name="Path 355" d="M98.33,123.9q.1-.047.2-.1h0c.063-.034.124-.071.185-.109l.025-.016c.061-.04.121-.081.18-.125l.008-.006c.053-.04.1-.081.154-.125l.04-.034c.052-.046.1-.093.152-.142l0,0c.765-.765.938-2.448,1.1-4.076.024-.233.048-.472.075-.709a1.824,1.824,0,0,1-.991-.988l-.446.045h0l-.317.031c-1.5.145-3.058.294-3.88.947a1.793,1.793,0,0,0-.154.137c-.05.05-.1.1-.144.154l-.031.036c-.044.052-.088.105-.129.16v0q-.068.091-.13.186l-.006.009a3.248,3.248,0,0,0-.437,1.052,3.289,3.289,0,0,0-.077.707,3.261,3.261,0,0,0,3.261,3.261,3.289,3.289,0,0,0,.709-.078c.065-.014.129-.03.193-.049l.018,0q.108-.032.213-.071l.009,0q.1-.038.2-.083l.012-.005" transform="translate(-85.035 -106.591)"/>
            <path id="Path_356" data-name="Path 356" d="M188.195,120.928a3.288,3.288,0,0,0-.078-.709c-.014-.065-.03-.129-.049-.193l-.005-.018c-.021-.072-.044-.143-.071-.213l0-.009q-.038-.1-.083-.2l-.005-.012c-.032-.069-.065-.137-.1-.2v0c-.034-.063-.071-.124-.109-.184l-.016-.025c-.04-.061-.081-.121-.125-.18l-.006-.008c-.04-.053-.082-.1-.125-.155l-.034-.039c-.046-.053-.094-.1-.144-.154-.766-.766-2.452-.938-4.083-1.1-.231-.024-.467-.048-.7-.074a1.824,1.824,0,0,1-.988.989q.024.224.045.447v0l.031.318c.145,1.5.294,3.058.947,3.88a1.8,1.8,0,0,0,.137.155c.05.05.1.1.154.144l.036.031c.052.045.106.088.16.129h0q.091.068.187.13l.008.005a3.248,3.248,0,0,0,1.053.438,3.285,3.285,0,0,0,.706.077,3.261,3.261,0,0,0,3.261-3.261" transform="translate(-164.663 -106.568)"/>
            <path id="Path_357" data-name="Path 357" d="M219.665,81.165q-.076.085-.157.167c-.057.056-.116.109-.178.161l-.056.045q-.07.055-.143.107l-.059.041c-.066.044-.133.086-.2.126l-.048.025q-.084.046-.172.089l-.088.041c-.049.022-.1.044-.149.065l-.091.037q-.109.042-.222.081l-.115.037-.133.041-.136.038-.114.029q-.273.069-.561.122l-.064.012-.2.035-.016,0q-.229.037-.464.068a11.1,11.1,0,0,1,1.471.292l.015,0c.193.055.38.117.558.187h0c.083.033.163.068.242.1l.039.018c.078.037.155.076.229.118l0,0c.076.043.149.088.219.135l.038.026q.083.058.162.12l.048.038c.061.051.121.1.176.159l0,0c.054.054.106.11.157.167l.041.048c.037.042.073.085.108.128l.041.052q.052.067.1.136l.032.046q.055.079.106.16l.017.027a4.135,4.135,0,0,1,.4.852l0,.006a2.961,2.961,0,0,0,.01-5.638c-.041.119-.088.235-.139.349-.01.022-.019.045-.03.068s-.034.069-.051.1-.033.067-.051.1l-.05.09c-.021.036-.042.073-.064.109l-.05.081q-.036.057-.075.113l-.051.073c-.028.039-.057.077-.086.115l-.05.065c-.033.041-.068.081-.1.121-.015.018-.03.036-.045.053" transform="translate(-196.26 -72.342)"/>
            <path id="Path_358" data-name="Path 358" d="M164.9,101.891a.223.223,0,0,0,.245,0,.888.888,0,0,0,.756-.759.225.225,0,0,0,0-.246.888.888,0,0,0-.759-.756.224.224,0,0,0-.246,0,.889.889,0,0,0-.756.761.224.224,0,0,0,0,.244.889.889,0,0,0,.761.756" transform="translate(-148.903 -90.824)"/>
            <path id="Path_359" data-name="Path 359" d="M124.073,259.767a4.213,4.213,0,0,0,.244,1.235,3.01,3.01,0,0,0,2.838,2.038,4.184,4.184,0,0,0,1.063-.112v-.957q-.041-.15-.093-.294a3.008,3.008,0,0,0-2.78-2.055,4.219,4.219,0,0,0-1.273.145" transform="translate(-112.583 -235.576)"/>
            <path id="Path_360" data-name="Path 360" d="M31.022,180.781h-10a14.182,14.182,0,0,0,4.354-10.207v-1.831a1.854,1.854,0,0,0-1.852-1.852H16.645a.468.468,0,0,0,.009-.093v-8.149a.454.454,0,0,0-.024-.141,2.948,2.948,0,0,0,2.286-2,4.136,4.136,0,0,1-.854-.405l-.012-.007q-.088-.055-.173-.115l-.034-.024q-.074-.053-.145-.109l-.044-.035q-.067-.054-.133-.112l-.044-.038c-.056-.051-.112-.1-.166-.157s-.11-.116-.161-.178l-.045-.056q-.055-.07-.107-.144l-.041-.058c-.044-.066-.086-.134-.126-.2l-.025-.047q-.046-.085-.089-.173c-.014-.029-.027-.058-.041-.087q-.034-.074-.065-.151c-.012-.03-.025-.06-.037-.09q-.043-.109-.081-.223c-.013-.038-.024-.076-.036-.114s-.028-.089-.041-.134-.026-.09-.038-.135-.02-.077-.03-.116q-.068-.272-.121-.558l-.013-.068c-.012-.067-.024-.134-.035-.2l0-.023q-.037-.227-.067-.458a11.109,11.109,0,0,1-.292,1.47l-.006.022c-.055.191-.116.376-.186.553l0,0c-.033.082-.067.161-.1.239l-.018.039c-.038.079-.077.156-.119.23h0q-.064.114-.135.219l-.026.037q-.058.084-.12.162l-.038.047c-.051.062-.1.122-.161.178h0l0,0c-.053.053-.108.1-.164.155l-.049.042c-.042.037-.085.073-.128.108l-.052.041c-.045.035-.09.069-.136.1l-.046.032q-.079.055-.16.106l-.027.017a4.127,4.127,0,0,1-.851.4l-.007,0a2.946,2.946,0,0,0,2.466,2.036.459.459,0,0,0-.016.116V166.8a.462.462,0,0,0,.009.093H9.631a1.854,1.854,0,0,0-1.852,1.852v1.831a14.183,14.183,0,0,0,4.354,10.207H.463a.463.463,0,1,0,0,.926H31.022a.463.463,0,1,0,0-.926" transform="translate(0 -138.184)"/>
        </g>
    </g>
</svg>
