<svg xmlns="http://www.w3.org/2000/svg" xmlns:xlink="http://www.w3.org/1999/xlink" width="35.537" height="37.484" viewBox="0 0 35.537 37.484">
    <defs>
        <clipPath id="clip-path">
            <rect id="Rectangle_174" data-name="Rectangle 174" width="35.537" height="37.484" fill="none"/>
        </clipPath>
    </defs>
    <g id="Group_326" data-name="Group 326" transform="translate(0 0)">
        <g id="Group_326-2" data-name="Group 326" transform="translate(0 0)" clip-path="url(#clip-path)">
            <path id="Path_380" data-name="Path 380" d="M4.013,74.27H32.237c2.428-5.159,2.6-6.347,2.329-11.227H1.684c-.275,4.88-.1,6.068,2.329,11.227" transform="translate(-0.926 -36.786)"/>
            <path id="Path_381" data-name="Path 381" d="M35.1,7.756C34.369,6.561,33.342,6.324,32.55,7c.192-1.025-.528-1.8-1.933-1.839-1.488-.042-2.306.781-1.955,1.915-.8-.756-1.871-.544-2.631.691-.773,1.257-.482,2.368.651,2.644-1.053.317-1.4,1.349-.715,2.622.742,1.372,1.936,1.633,2.749.605-.452,1.147.258,2.014,1.649,2.07-.037,1.33-.189,2.541-.327,3.641,0,.03-.007.055-.011.085-.24-.92-1.131-2.169-3.948-3.056,0,0-1.039,2.66,3.8,4.237-.054.465-.092.9-.1,1.308H17.4a18.309,18.309,0,0,1,.249-3.79c6.246-1.624,5.12-5.046,5.12-5.046C19.8,13.84,18.475,15,17.9,16.017c.1-.9.175-1.851.2-2.86,1.625-.142,2.419-1.127,2.117-2.4,1.008,1.087,2.409.716,3.292-.919.868-1.606.414-2.9-.931-3.285,1.448-.329,1.827-1.728.852-3.312-.918-1.492-2.2-1.788-3.188-.947C20.482,1.017,19.586.051,17.83,0c-1.858-.052-2.88.974-2.442,2.391-1-.945-2.337-.679-3.285.861-.966,1.571-.6,2.958.813,3.3-1.316.4-1.752,1.684-.892,3.274.926,1.713,2.417,2.039,3.432.756-.564,1.432.322,2.514,2.059,2.584-.047,1.661-.235,3.173-.408,4.547,0,.036-.009.07-.014.1-.3-1.149-1.412-2.708-4.931-3.815,0,0-1.3,3.322,4.748,5.291a13.837,13.837,0,0,0-.106,2.621H4.651a21.844,21.844,0,0,1,.22-2.244c5-1.3,4.1-4.041,4.1-4.041-2.374.606-3.438,1.534-3.9,2.349.078-.723.141-1.487.163-2.3,1.3-.116,1.935-.9,1.694-1.911.807.871,1.928.574,2.637-.736.695-1.285.331-2.325-.746-2.63,1.159-.264,1.463-1.384.683-2.652C8.77,6.561,7.744,6.324,6.951,7c.191-1.025-.527-1.8-1.932-1.839-1.489-.042-2.306.781-1.956,1.915-.8-.756-1.871-.544-2.63.691-.773,1.257-.482,2.367.651,2.644C.03,10.725-.32,11.757.37,13.03c.741,1.372,1.935,1.633,2.748.605-.453,1.147.258,2.014,1.649,2.07-.038,1.33-.188,2.541-.327,3.641,0,.03-.007.055-.011.085-.241-.92-1.131-2.169-3.949-3.056,0,0-1.038,2.66,3.8,4.237-.054.465-.092.9-.1,1.308H.427v2.963H33.592V21.921H30.25a21.7,21.7,0,0,1,.22-2.243c5-1.3,4.1-4.042,4.1-4.042-2.374.606-3.438,1.534-3.9,2.349.078-.723.141-1.487.163-2.3,1.3-.116,1.935-.9,1.7-1.911.807.871,1.928.574,2.636-.736.7-1.285.332-2.325-.745-2.63,1.158-.264,1.462-1.384.682-2.652M15.757,6.588A2.012,2.012,0,1,1,17.768,8.6a2.012,2.012,0,0,1-2.012-2.012m-12.4,3.846a1.611,1.611,0,1,1,1.611,1.611,1.611,1.611,0,0,1-1.611-1.611m27.21,1.611a1.611,1.611,0,1,1,1.611-1.611,1.611,1.611,0,0,1-1.611,1.611" transform="translate(0 0)"/>
        </g>
    </g>
</svg>
