<svg xmlns="http://www.w3.org/2000/svg" xmlns:xlink="http://www.w3.org/1999/xlink" width="30.897" height="45.951" viewBox="0 0 30.897 45.951">
    <defs>
        <clipPath id="clip-path">
            <rect id="Rectangle_173" data-name="Rectangle 173" width="30.897" height="45.951" fill="none"/>
        </clipPath>
    </defs>
    <g id="Group_324" data-name="Group 324" transform="translate(0 0)">
        <path id="Path_361" data-name="Path 361" d="M18.287,66.61l1.9,11.38H30.8l1.9-11.38Z" transform="translate(-8.796 -32.038)"/>
        <g id="Group_325" data-name="Group 325" transform="translate(0 0)">
            <g id="Group_324-2" data-name="Group 324" clip-path="url(#clip-path)">
                <path id="Path_362" data-name="Path 362" d="M32.8,62.259a.939.939,0,0,1-.938.937H16.595a.937.937,0,0,1,0-1.874H31.865a.939.939,0,0,1,.938.937" transform="translate(-7.532 -29.495)"/>
                <path id="Path_363" data-name="Path 363" d="M43.27,5.841C41.8,3.132,43.771,1.128,46.283,0c.772,2.921-.052,4.808-3.013,5.841" transform="translate(-20.569 0)"/>
                <path id="Path_364" data-name="Path 364" d="M29.123,12.374h-.015a1.016,1.016,0,0,0-1.017,1c-.06,3.724-1.711,4.719-3.619,5.872-.468.281-.934.563-1.372.879a8.474,8.474,0,0,0-2.634,3.2c-.173-.2-.306-.366-.494-.58l-.354-.407a18.651,18.651,0,0,1-3.76-6.7,1.015,1.015,0,0,0-1.966.509,20.338,20.338,0,0,0,4.193,7.519l.358.408c2.682,3.078,3.907,4.483,3.907,6.594l-.361,7.108c0,.56.815,1.014,1.376,1.014s1.3-.455,1.3-1.014l-.286-7.108c0-2.114-.863-3.65-2.44-5.609a6.858,6.858,0,0,1,2.344-3.29c.393-.284.814-.535,1.236-.789,2.014-1.216,4.521-2.728,4.6-7.579a1.02,1.02,0,0,0-1-1.031" transform="translate(-6.667 -5.952)"/>
                <path id="Path_365" data-name="Path 365" d="M46.2,12.288c1.293-3.715,5.261-3.15,6.919-1.988-2.3,3.1-4.088,2.066-6.919,1.988" transform="translate(-22.221 -4.533)"/>
                <path id="Path_366" data-name="Path 366" d="M37.563,6.662C34.515,7.14,32.82,4.6,33.282,1.277c2.407.2,4.3,2.248,4.281,5.385" transform="translate(-15.972 -0.614)"/>
                <path id="Path_367" data-name="Path 367" d="M15.766,40.742C13.648,38.5,15.33,35.2,17.927,34.4c2.228,3.626-1.728,4.518-2.161,6.34" transform="translate(-7.121 -16.547)"/>
                <path id="Path_368" data-name="Path 368" d="M10.146,11.4C7.1,11.877,5.4,9.338,5.865,6.013c2.406.2,4.3,2.248,4.28,5.385" transform="translate(-2.785 -2.892)"/>
                <path id="Path_369" data-name="Path 369" d="M15.79,10.51c3.889-.226,2.113-4.768,2.487-6.065-2.685.813-3.153,3.435-2.487,6.065" transform="translate(-7.465 -2.138)"/>
                <path id="Path_370" data-name="Path 370" d="M19.988,16.717c2.519-.961,3.442-3.074,3.206-5.971-2.341.6-4.242,2.532-3.206,5.971" transform="translate(-9.475 -5.169)"/>
                <path id="Path_371" data-name="Path 371" d="M34.288,16.479c2.053-2.63.626-5.284-2.667-6.265-1.087,2.321-.215,4.956,2.667,6.265" transform="translate(-14.992 -4.913)"/>
                <path id="Path_372" data-name="Path 372" d="M44.7,19.47c2.258,2.106,5.084.957,6.564-2.056-2.1-1.186-4.825-.553-6.564,2.056" transform="translate(-21.502 -8.099)"/>
                <path id="Path_373" data-name="Path 373" d="M42.751,25.2c.2,2.493,2.787,3.538,5.629,2.76-.669-1.9-2.863-3.164-5.629-2.76" transform="translate(-20.562 -12.087)"/>
                <path id="Path_374" data-name="Path 374" d="M0,17.986c1.325,2.786,4.378,2.755,6.862.495C5.338,16.609,2.577,16.2,0,17.986" transform="translate(0 -8.1)"/>
                <path id="Path_375" data-name="Path 375" d="M26.192,23.813c.976-2.6,3.012-2.925,1.107-6.407-3.042,1.292-3.281,4.992-1.107,6.407" transform="translate(-11.907 -8.372)"/>
                <path id="Path_376" data-name="Path 376" d="M2.818,25.466c1.323,2.787,4.377,2.755,6.863.5-1.525-1.874-4.286-2.287-6.863-.5" transform="translate(-1.355 -11.697)"/>
                <path id="Path_377" data-name="Path 377" d="M8.034,33.508c2.6.645,4.834.5,5.744-2.138a3.869,3.869,0,0,0-5.744,2.138" transform="translate(-3.864 -14.813)"/>
                <path id="Path_378" data-name="Path 378" d="M34.159,35.827c2.054-1.071,1.952-3.361.19-5.167-1.369,1.194-1.605,3.279-.19,5.167" transform="translate(-15.97 -14.747)"/>
                <path id="Path_379" data-name="Path 379" d="M42.909,33.9c-.28-2.817-1.218-4.986-4.167-4.952A4.087,4.087,0,0,0,42.909,33.9" transform="translate(-18.593 -13.922)"/>
            </g>
        </g>
    </g>
</svg>
