<svg xmlns="http://www.w3.org/2000/svg" width="12" height="13" viewBox="0 0 12 13"><g><g><path fill="#f73429" d="M10.927 10.01l-.067-.134c-.186-.44-2.477-1.106-2.664-1.119l-.146.013c-.28.054-.587.307-1.186.826a.362.362 0 0 1-.426.054c-.786-.44-1.745-1.32-2.225-1.852-.52-.573-1.145-1.518-1.438-2.278a.399.399 0 0 1 .106-.413c.68-.612.973-.905 1-1.225.013-.186-.387-2.544-.8-2.77l-.12-.08C2.695.857 2.295.604 1.856.697a1.222 1.222 0 0 0-.307.12c-.293.187-1.025.693-1.358 1.346-.2.413-.293 4.156 2.504 7.312 2.77 3.13 6.194 3.264 6.7 3.157h.013l.04-.013c.693-.253 1.279-.906 1.505-1.185.413-.493.134-1.093-.026-1.426z"/></g></g></svg>