<svg xmlns="http://www.w3.org/2000/svg" width="29" height="33" viewBox="0 0 29 33"><g><g><g><path d="M18.038 17.463l-4.732-7.85-4.683 7.706c-1.306 2.133-2.646 4.396-2.927 6.837a7.85 7.85 0 0 0 5.566 8.308 7.747 7.747 0 0 0 9.436-9.408 20.841 20.841 0 0 0-2.66-5.593z"/></g><g><path d="M8.342 7.603A11.512 11.512 0 0 0 6.86 4.506L4.254.184l-2.592 4.24a9.714 9.714 0 0 0-1.64 3.822 4.341 4.341 0 0 0 3.076 4.588 4.28 4.28 0 0 0 5.217-5.197z"/></g><g><path d="M28.588 10.577a13.667 13.667 0 0 0-1.75-3.699l-3.09-5.087-3.07 5.026c-.856 1.367-1.73 2.878-1.915 4.485a5.142 5.142 0 0 0 3.644 5.47 5.073 5.073 0 0 0 6.154-6.154z"/></g></g></g></svg>