<svg xmlns="http://www.w3.org/2000/svg" width="31" height="34" viewBox="0 0 31 34"><g><g><path d="M23.713 23.951a.74.74 0 0 1 .305.735l-1.006 5.382 2.95 2.623a.753.753 0 0 1 .062 1.022.752.752 0 0 1-1.023.063l-3.255-2.894a.738.738 0 0 1-.226-.679l.995-5.314-1.04-.7c.143-.483.269-.977.373-1.482zM8.862 22.707zm0 0c.106.504.23 1 .373 1.481l-1.04.701.995 5.314a.738.738 0 0 1-.226.679l-3.255 2.894a.752.752 0 0 1-1.023-.062.753.753 0 0 1 .062-1.023l2.95-2.623-1.006-5.382a.74.74 0 0 1 .305-.735zm14.93-5.743c.198.035.38.157.486.328l2.385 3.753 3.029 1.007c.362.12.582.56.46.922a.756.756 0 0 1-.924.457l-3.255-1.086a.73.73 0 0 1-.384-.305l-2.362-3.708-1.029-.17c-.02-.49-.05-.989-.101-1.481zm-15.19-.283c-.051.492-.082.99-.101 1.481l-1.04.17L5.11 22.04a.73.73 0 0 1-.373.305l-3.255 1.086a.756.756 0 0 1-.924-.457.756.756 0 0 1 .46-.922l3.018-1.007 2.385-3.753a.733.733 0 0 1 .497-.328l1.684-.283zm11.359-5.45zm0 0c1.02 2.174 1.537 5.158 1.537 7.892 0 5.312-2.738 10.626-5.425 11.465V11.605c1.175-.027 2.605-.11 3.888-.373zm-5.335.374v18.983c-2.687-.839-5.425-6.153-5.425-11.465 0-2.734.517-5.718 1.537-7.891 1.252.242 2.517.335 3.888.373zm4.475-4.025c.631.636.79 1.447.351 2.272-1.307.271-2.681.278-4.103.317-1.22-.002-2.75-.05-4.102-.317-.438-.825-.269-1.636.362-2.272.957-.302 2.35-.486 3.74-.486 1.39 0 2.792.184 3.752.486zm7.968-2.216c.436-.027.833.418.758.848l-.362 2.17a.727.727 0 0 1-.18.362l-2.894 3.257a.726.726 0 0 1-.283.203l-2.667.995a15.38 15.38 0 0 0-.452-1.368l2.441-.916 2.634-2.962.327-1.979a.746.746 0 0 1 .678-.61zm-23.53 0a.75.75 0 0 1 .78.61l.327 1.979 2.634 2.962 2.441.916c-.17.44-.318.895-.452 1.368l-2.667-.995A.722.722 0 0 1 6.319 12L3.426 8.744a.727.727 0 0 1-.181-.361l-.362-2.171c-.07-.396.255-.817.656-.848zm14.817.542a16.338 16.338 0 0 0-3.007-.26c-1.043 0-2.073.082-3.006.26.54-1.317 1.88-1.978 3.006-1.978 1.127 0 2.466.663 3.007 1.978zM21.622.672c2.242.097 4.806.94 7.697 1.842.36.116.584.55.468.91a.752.752 0 0 1-.91.47c-2.896-.906-5.395-1.692-7.311-1.775-1.78-.077-2.984.316-3.922 1.798a4.126 4.126 0 0 0-1.334-.588c.89-1.932 3.105-2.69 5.312-2.657zm-12.534 0c1.988-.066 4.108.708 5.312 2.645a4.094 4.094 0 0 0-1.334.6c-.938-1.482-2.142-1.876-3.922-1.798-1.916.083-4.415.87-7.312 1.775a.752.752 0 0 1-.91-.47.753.753 0 0 1 .47-.91C4.281 1.611 6.845.77 9.087.672z"/></g></g></svg>