<svg xmlns="http://www.w3.org/2000/svg" width="41" height="42" viewBox="0 0 41 42"><defs><clipPath id="f6pja"><path d="M.338 41.953V.483h40.784v41.47z"/></clipPath></defs><g><g><g><path d="M14.81 10.983l10.316 7.608 13.797 7.014v5.105h-3.092l-.087-2.77H18.252L4.492 17.766l2.588-3.51L.338 5.412 6.804.482zm-6.226 1.234l2.02-2.739-4.26-5.586-2.597 1.98z"/></g><g><path d="M25.958 16.528l-9.956-7.342 1.47-1.992 9.955 7.342z"/></g><g><g><g/><g clip-path="url(#f6pja)"><path d="M36.479 39.068a1.185 1.185 0 1 1 1.186-1.185zm3.57-3.375l-2.6-2.587-2.586 2.587a3.667 3.667 0 0 0 5.185 5.186z"/></g></g></g></g></g></svg>