<svg xmlns="http://www.w3.org/2000/svg" width="40" height="29" viewBox="0 0 40 29"><g><g clip-path="url(#clip-a5bac307-ff59-43e4-a2c4-4c4acfa8eb09)"><path d="M31.984 6.713a.995.995 0 1 1-.515-1.922.995.995 0 0 1 .515 1.922zm-2.345 7.975a.422.422 0 1 1-.219-.815.422.422 0 0 1 .22.815zM25.188 3.103a.591.591 0 1 1 1.142-.305.591.591 0 0 1-1.142.305zm.782 4.023c-.116.295-.331.52-.62.598-.55.148-1.143-.29-1.327-.975-.184-.686.112-1.362.661-1.509a.879.879 0 0 1 .557.044c.582-.08 1.121.18 1.272.65zm-1.08 6.897a.914.914 0 0 1-1.135-1.039.581.581 0 0 1-.19-.073.576.576 0 0 1-.291.232.59.59 0 1 1-.376-1.118.58.58 0 0 1 .495.065.58.58 0 0 1 .292-.234.59.59 0 0 1 .747.372c.004.008.002.018.004.026a.913.913 0 0 1 1.1.65zm-.74 2.02a.585.585 0 0 1-.216.012 1.728 1.728 0 0 1-.967.682 1.748 1.748 0 1 1 1.293-1.787c.145.072.262.2.307.37a.59.59 0 0 1-.417.722zm-6.11-7.65c-.207.41-.576.737-1.055.866-.893.239-1.811-.29-2.05-1.183a1.664 1.664 0 0 1 .278-1.426c-.003-.009-.008-.016-.01-.026-.2-.747.243-1.516.991-1.716a1.392 1.392 0 0 1 1.176.22l.054-.009c.01-.02.019-.04.031-.06a.781.781 0 1 1 1.432.489c.216.204.384.466.466.774.24.893-.29 1.81-1.183 2.05-.043.011-.086.013-.13.021zM9.514 13.34a1.402 1.402 0 1 1-.724-2.709 1.402 1.402 0 0 1 .724 2.71zm9.356 7.602c.04.056.074.117.093.188a.586.586 0 0 1-.183.591c.01.028.024.054.032.084.034.129.043.257.041.385a.585.585 0 0 1 .532.429.59.59 0 0 1-.418.723.581.581 0 0 1-.557-.154c-.163.153-.36.273-.59.334a1.402 1.402 0 0 1-.725-2.708c.013-.004.026-.003.04-.007a.584.584 0 0 1 .413-.436.573.573 0 0 1 .34.022.584.584 0 0 1 .41-.423.582.582 0 1 1 .572.972zm-15.44-.047zm14.792-7.456c-5.9 2.573-10.788 5.886-14.666 9.936a24.75 24.75 0 0 0-.68.722l-.023.006a.635.635 0 0 1-.136.165l.025-.007a26.389 26.389 0 0 0-2.04 2.446.995.995 0 0 0-.221.805c.028.3.173.552.433.756.235.177.501.243.797.198.3-.03.553-.174.757-.435a27.928 27.928 0 0 1 1.904-2.28c.056-.05.103-.097.143-.14a.234.234 0 0 1 .117-.135c18.187 7.706 29.846-.391 34.979-24.288C15.23-3.132 3.169 3.438 3.43 20.895c3.789-3.361 8.72-5.846 14.791-7.456z"/></g></g></svg>