<svg xmlns="http://www.w3.org/2000/svg" width="39" height="26" viewBox="0 0 39 26"><g><g clip-path="url(#clip-28fd09a1-fcf5-42f2-a240-e25d3603c1a2)"><path fill="#333" d="M14.562 18.817V6.399c3.98 2.077 7.932 4.14 11.937 6.228zm22.97-14.704c-.459-1.997-2.092-3.47-4.059-3.69-4.656-.52-9.369-.522-14.06-.52-4.692-.002-9.405 0-14.061.52-1.966.22-3.598 1.693-4.057 3.69C.64 6.957.633 10.061.633 12.989c0 2.928 0 6.032.654 8.875.46 1.997 2.092 3.47 4.058 3.69 4.656.52 9.37.523 14.06.52 4.694.003 9.406 0 14.061-.52 1.965-.22 3.599-1.692 4.059-3.69.654-2.844.657-5.947.657-8.875s.005-6.032-.65-8.876z"/></g></g></svg>