<svg xmlns="http://www.w3.org/2000/svg" width="15" height="20" viewBox="0 0 15 20"><defs><clipPath id="drjna"><path d="M.521 19.637V.363h14.472v19.274z"/></clipPath></defs><g><g><g><path fill="#121211" d="M.719.362V5.87l4.907 3.552h4.283l4.908-3.552V.362z"/></g><g><path fill="#121211" d="M.521 14.56v-.564h14.472v.563z"/></g><g><g><g/><g clip-path="url(#drjna)"><path fill="#121211" d="M2.65 17.028c0 .37-.212.668-.473.668-.26 0-.472-.299-.472-.668 0-.37.211-.668.472-.668s.473.299.473.668"/></g><g clip-path="url(#drjna)"><path fill="#121211" d="M4.566 16.545c0 .37-.212.669-.472.669s-.473-.3-.473-.669c0-.368.212-.668.473-.668.26 0 .472.3.472.668"/></g><g clip-path="url(#drjna)"><path fill="#121211" d="M6.42 16.933c0 .369-.21.668-.472.668-.26 0-.472-.3-.472-.668 0-.369.211-.668.472-.668.262 0 .472.298.472.668"/></g><g clip-path="url(#drjna)"><path fill="#121211" d="M5.591 18.88c0 .369-.21.668-.472.668-.26 0-.472-.3-.472-.668 0-.369.211-.668.472-.668s.473.299.473.668"/></g><g clip-path="url(#drjna)"><path fill="#121211" d="M3.644 18.49c0 .37-.211.669-.473.669-.26 0-.472-.3-.472-.669 0-.368.212-.668.472-.668.262 0 .473.3.473.668"/></g><g clip-path="url(#drjna)"><path fill="#121211" d="M1.709 18.882c0 .368-.212.667-.473.667-.26 0-.472-.299-.472-.667 0-.37.211-.669.472-.669.262 0 .473.3.473.669"/></g><g clip-path="url(#drjna)"><path fill="#121211" d="M13.795 16.697c0 .369.211.668.472.668.26 0 .472-.3.472-.668 0-.37-.212-.668-.472-.668-.261 0-.472.299-.472.668"/></g><g clip-path="url(#drjna)"><path fill="#121211" d="M11.79 17.116c0 .369.212.668.473.668.26 0 .472-.3.472-.668 0-.37-.212-.668-.472-.668-.262 0-.473.298-.473.668"/></g><g clip-path="url(#drjna)"><path fill="#121211" d="M9.872 16.634c0 .37.21.668.472.668.26 0 .472-.298.472-.668 0-.37-.211-.667-.472-.667-.262 0-.472.298-.472.667"/></g><g clip-path="url(#drjna)"><path fill="#121211" d="M8.017 17.021c0 .369.212.668.473.668.26 0 .472-.3.472-.668 0-.369-.212-.668-.472-.668-.262 0-.473.3-.473.668"/></g><g clip-path="url(#drjna)"><path fill="#121211" d="M8.847 18.967c0 .37.212.668.473.668.26 0 .472-.298.472-.668 0-.369-.211-.668-.472-.668s-.473.3-.473.668"/></g><g clip-path="url(#drjna)"><path fill="#121211" d="M10.794 18.578c0 .37.211.669.472.669.26 0 .472-.3.472-.669 0-.37-.211-.667-.472-.667s-.472.298-.472.667"/></g><g clip-path="url(#drjna)"><path fill="#121211" d="M12.73 18.97c0 .368.211.667.472.667s.473-.299.473-.668c0-.369-.212-.668-.473-.668-.26 0-.472.299-.472.668"/></g></g></g></g></g></svg>