<svg xmlns="http://www.w3.org/2000/svg" width="29" height="22" viewBox="0 0 29 22"><g><g><path fill="#0b0b0b" d="M9.446 18.164c.091-1.911 2.075-2.895 3.986-2.064a3.114 3.114 0 0 1 1.21-.812c-1.343-3.2-2.615-4.638-3.565-5.049C2.743 13.73 4.055 7.445.213 4.827c7.424-2.49 11.003-2.634 11.593 4.475a15.006 15.006 0 0 1 3.597 4.959c1.509-5.515 5.99-9.879 11.76-12.85-5.626 2.463-8.032 4.128-10.397 7.89C13.896-.758 23.27 2.466 28.755 0c-2.717 5.23-2.289 13.543-10.197 10.448a10.557 10.557 0 0 0-2.143 4.757 2.466 2.466 0 0 1 1.817 1.979 1.876 1.876 0 0 1 3.03 1.691c.955-.35 2.3.894.466 1.002-4.12.248-4.541 1.551-6.906 1.551-1.816 0-1.032-.898-5.395-1.408-3.04-.357-.613-1.941.019-1.856"/></g></g></svg>