<svg xmlns="http://www.w3.org/2000/svg" width="29" height="33" viewBox="0 0 29 33"><g><g clip-path="url(#clip-bf6932d2-a047-4a80-98df-9895c9bdcb7f)"><path d="M18.304 17.597l-4.731-7.849-4.684 7.706c-1.306 2.133-2.647 4.401-2.926 6.837a7.848 7.848 0 0 0 5.566 8.307 7.747 7.747 0 0 0 9.436-9.407 20.839 20.839 0 0 0-2.661-5.594"/></g><g clip-path="url(#clip-bf6932d2-a047-4a80-98df-9895c9bdcb7f)"><path d="M8.607 7.738a11.554 11.554 0 0 0-1.483-3.1L4.518.32 1.927 4.56A9.719 9.719 0 0 0 .286 8.38a4.342 4.342 0 0 0 3.077 4.588 4.28 4.28 0 0 0 5.218-5.2z"/></g><g clip-path="url(#clip-bf6932d2-a047-4a80-98df-9895c9bdcb7f)"><path d="M28.854 10.712a13.736 13.736 0 0 0-1.75-3.7l-3.09-5.087-3.07 5.025a11.294 11.294 0 0 0-1.913 4.487 5.143 5.143 0 0 0 3.644 5.47 5.073 5.073 0 0 0 6.154-6.154z"/></g></g></svg>