<svg xmlns="http://www.w3.org/2000/svg" width="39" height="49" viewBox="0 0 39 49"><g><g><path fill="#333" d="M17.612 40.003h13.309v-6.499H17.612zm-7.427 0h5.571v-6.499h-5.571zm22.593 0h5.571v-6.499h-5.571zm-8.047 8.202h13.618v-6.499H24.731zm-15.629 0H22.72v-6.499H9.102zm2.166-23.986A577.6 577.6 0 0 0 .59 33.504c-.619.464-.464 1.393 0 1.858l.929.927.928.929a1.213 1.213 0 0 0 1.702 0l9.286-10.678zm8.357 1.547l-4.798-4.951-4.178-1.548-1.703 1.703 7.739 7.737zm5.106 6.037h13.618v-6.5H24.731z"/></g><g><path fill="#333" d="M19.658 6.376V5.355l1.429-2.653h3.061l1.429 2.653v1.021zm8.775 2.857v-4.49L25.781.049h-6.327l-2.449 4.694v4.49h4.286v3.47c.816-.204 3.674.204 3.674 2.449 0 1.428-1.021 2.449-2.245 2.449-1.429 0-2.45-1.021-2.45-2.449 0-.204 0-.612.204-.817l-2.653-1.224c-.204.612-.408 1.429-.408 2.041 0 2.857 2.449 5.306 5.307 5.306 2.857 0 5.101-2.449 5.101-5.306 0-2.245-1.632-4.286-3.673-4.899v-1.02z"/></g></g></svg>