<?xml version="1.0" encoding="utf-8"?>
<!-- Generator: Adobe Illustrator 25.2.1, SVG Export Plug-In . SVG Version: 6.00 Build 0)  -->
<svg version="1.1" id="Ebene_1" xmlns="http://www.w3.org/2000/svg" xmlns:xlink="http://www.w3.org/1999/xlink" x="0px" y="0px"
	 viewBox="0 0 73 72.7" style="enable-background:new 0 0 73 72.7;" xml:space="preserve">
<g id="Gruppe_96">
	<path id="Pfad_22" d="M40.5,37.8L35.8,30l-4.7,7.7c-1.3,2.1-2.6,4.4-2.9,6.8c-0.4,3.7,2,7.2,5.6,8.3c4.1,1.1,8.4-1.4,9.4-5.6
		c0,0,0,0,0,0c0.3-1.3,0.3-2.6,0-3.8C42.6,41.4,41.7,39.5,40.5,37.8z"/>
	<path id="Pfad_23" d="M30.8,28c-0.3-1.1-0.8-2.1-1.5-3.1l-2.6-4.3l-2.6,4.2c-0.8,1.1-1.4,2.5-1.6,3.8c-0.2,2.1,1.1,4,3.1,4.6
		c2.3,0.6,4.6-0.8,5.2-3C31,29.5,31,28.7,30.8,28L30.8,28z"/>
	<path id="Pfad_24" d="M51.1,30.9c-0.4-1.3-1-2.6-1.8-3.7l-3.1-5.1l-3.1,5c-1,1.3-1.6,2.9-1.9,4.5c-0.3,2.5,1.3,4.8,3.6,5.5
		c2.7,0.7,5.4-1,6.1-3.7C51.2,32.6,51.2,31.8,51.1,30.9L51.1,30.9z"/>
</g>
</svg>
