<svg xmlns="http://www.w3.org/2000/svg" width="40" height="49" viewBox="0 0 40 49"><g><g clip-path="url(#clip-747d54b0-5fe4-40b6-be7e-0f851b7619ab)"><path d="M28.499 14.978h-.823l2.421 2.954c.779 1.003.075 2.373-1.114 2.373h-2.13c.334.485 1.248 1.463.193 2.518.775.92 1.937 1.356 3.39 1.356 3.244 0 4.842-2.228 4.842-6.78 0-5.036-1.937-12.59-4.842-12.59-1.405 0-2.615 1.792-3.439 4.213l2.664 3.632c.672.866.173 2.324-1.162 2.324"/></g><g clip-path="url(#clip-747d54b0-5fe4-40b6-be7e-0f851b7619ab)"><path d="M15.424 6.746h.969l-4.745 6.489c-.259.387.027.726.386.726h2.858l-3.729 4.552c-.261.392.032.823.387.823h3.923l-1.453 2.13c-.206.31.052.727.436.727h11.621c.385 0 .642-.417.437-.726l-1.453-2.131h3.923c.373 0 .637-.448.386-.823l-3.728-4.503h2.857c.361 0 .646-.34.387-.727l-4.745-6.537h.969c.365 0 .643-.44.386-.823L20.654.112c-.194-.242-.581-.242-.726 0l-4.843 5.81c-.211.319-.067.824.339.824"/></g><g clip-path="url(#clip-747d54b0-5fe4-40b6-be7e-0f851b7619ab)"><path d="M10.098 24.179c1.452 0 2.566-.436 3.39-1.356-1.031-1.03-.142-2.034.193-2.518H11.55a1.449 1.449 0 0 1-1.113-2.373l2.421-2.954h-.823c-1.254 0-1.869-1.366-1.163-2.276l2.664-3.631c-.823-2.421-2.034-4.213-3.438-4.213-2.905 0-4.843 7.554-4.843 12.59 0 4.503 1.599 6.73 4.843 6.73"/></g><g clip-path="url(#clip-747d54b0-5fe4-40b6-be7e-0f851b7619ab)"><path d="M38.544 35.852a19.52 19.52 0 0 0 1.317-6.75h-4.799a.489.489 0 0 0-.268-.081h-3.39v-3.922c-.462.065-1.531.067-1.937 0v3.922h-8.232v-6.295h-1.937v6.295h-8.232v-3.922c-.484 0-1.121.115-1.937 0v3.922h-3.39a.483.483 0 0 0-.267.08H.669c.038 2.264.46 4.432 1.202 6.444l3.717-5.585c.047.014.094.03.151.03h3.365l-5.765 8.662a19.673 19.673 0 0 0 4.856 5.557l4.067-14.22h3.061l-4.554 15.926a19.459 19.459 0 0 0 7.623 2.364v-18.29h2.943v18.35a19.458 19.458 0 0 0 7.847-2.113L24.539 29.99H27.6l4.185 14.634a19.698 19.698 0 0 0 5.256-5.718l-5.934-8.916h3.536z"/></g></g></svg>