<svg xmlns="http://www.w3.org/2000/svg" width="48" height="29" viewBox="0 0 48 29"><g><g clip-path="url(#clip-d9c4b7cc-e949-4ff7-b54e-c67fe219aaec)"><path d="M35.701 20.365a4.135 4.135 0 0 1-4.134-4.134 4.129 4.129 0 0 1 4.134-4.126 4.127 4.127 0 0 1 4.126 4.126zm0-11.306c-3.96 0-7.172 3.22-7.172 7.172a7.173 7.173 0 0 0 7.172 7.172c3.952 0 7.172-3.212 7.172-7.172z"/></g><g clip-path="url(#clip-d9c4b7cc-e949-4ff7-b54e-c67fe219aaec)"><path d="M35.701 25.315a9.081 9.081 0 0 1-9.084-9.084 9.082 9.082 0 0 1 9.084-9.084c1.402 0 2.73.318 3.916.886L35.693 4.11h-12.16v3.612h3.537a12.03 12.03 0 0 0-3.507 8.518c0 6.688 5.442 12.122 12.13 12.122 6.689 0 12.13-5.434 12.13-12.122l-3.924-3.924a9.042 9.042 0 0 1 .886 3.916zm3.916-17.282a9.128 9.128 0 0 1 4.282 4.282z"/></g><g clip-path="url(#clip-d9c4b7cc-e949-4ff7-b54e-c67fe219aaec)"><path d="M7.321 5.507H5.809a.567.567 0 0 0 0 1.134h1.512a.567.567 0 0 0 0-1.134"/></g><g clip-path="url(#clip-d9c4b7cc-e949-4ff7-b54e-c67fe219aaec)"><path d="M2.787 6.64a.567.567 0 0 0 0-1.134H1.275a.566.566 0 0 0 0 1.134z"/></g><g clip-path="url(#clip-d9c4b7cc-e949-4ff7-b54e-c67fe219aaec)"><path d="M11.855 5.507h-1.511a.567.567 0 0 0 0 1.134h1.511a.567.567 0 0 0 0-1.134"/></g><g clip-path="url(#clip-d9c4b7cc-e949-4ff7-b54e-c67fe219aaec)"><path d="M10.242 4.155l1.433.483a.566.566 0 1 0 .361-1.075l-1.432-.482a.566.566 0 1 0-.362 1.074"/></g><g clip-path="url(#clip-d9c4b7cc-e949-4ff7-b54e-c67fe219aaec)"><path d="M3.442.666L2.01.184a.567.567 0 0 0-.362 1.074l1.432.483A.568.568 0 0 0 3.442.666"/></g><g clip-path="url(#clip-d9c4b7cc-e949-4ff7-b54e-c67fe219aaec)"><path d="M7.74 2.115l-1.433-.483a.568.568 0 0 0-.362 1.075l1.433.482a.567.567 0 1 0 .362-1.074"/></g><g clip-path="url(#clip-d9c4b7cc-e949-4ff7-b54e-c67fe219aaec)"><path d="M2.838 10.488l-1.433.482a.567.567 0 1 0 .362 1.075l1.432-.483a.568.568 0 0 0 .357-.718.569.569 0 0 0-.718-.356"/></g><g clip-path="url(#clip-d9c4b7cc-e949-4ff7-b54e-c67fe219aaec)"><path d="M11.431 7.592l-1.432.482a.568.568 0 0 0 .362 1.075l1.431-.483a.567.567 0 1 0-.361-1.074"/></g><g clip-path="url(#clip-d9c4b7cc-e949-4ff7-b54e-c67fe219aaec)"><path d="M7.135 9.04l-1.434.483a.568.568 0 0 0 .362 1.074l1.432-.482a.567.567 0 1 0-.36-1.075"/></g><g clip-path="url(#clip-d9c4b7cc-e949-4ff7-b54e-c67fe219aaec)"><path d="M21.833 2.914h-2.056L14.752-.025a.577.577 0 0 0-.574-.008.585.585 0 0 0-.281.499v11.041a.562.562 0 0 0 .568.567.566.566 0 0 0 .287-.076l5.011-2.939h2.07c.31 0 .567-.257.567-.567V3.481a.571.571 0 0 0-.567-.567"/></g></g></svg>