<svg xmlns="http://www.w3.org/2000/svg" width="32" height="42" viewBox="0 0 32 42"><g><g clip-path="url(#clip-ff9a14e9-1df3-44cf-a162-a7e4a8c3d851)"><path d="M24.123.558h7.112v14.856l-10.403 9.58h-9.076l-10.402-9.58V.558z"/></g><g clip-path="url(#clip-ff9a14e9-1df3-44cf-a162-a7e4a8c3d851)"><path d="M.823 30.945v-1.521h30.886v1.521z"/></g><g clip-path="url(#clip-ff9a14e9-1df3-44cf-a162-a7e4a8c3d851)"><path d="M5.366 36.126c0 .788-.451 1.426-1.009 1.426-.556 0-1.008-.638-1.008-1.426 0-.789.452-1.425 1.008-1.425.558 0 1.009.637 1.009 1.425"/></g><g clip-path="url(#clip-ff9a14e9-1df3-44cf-a162-a7e4a8c3d851)"><path d="M9.455 35.098c0 .787-.452 1.426-1.008 1.426-.555 0-1.008-.639-1.008-1.426 0-.788.451-1.426 1.008-1.426.558 0 1.008.638 1.008 1.426"/></g><g clip-path="url(#clip-ff9a14e9-1df3-44cf-a162-a7e4a8c3d851)"><path d="M13.414 35.925c0 .787-.451 1.426-1.008 1.426-.557 0-1.009-.639-1.009-1.426 0-.788.452-1.426 1.009-1.426.557 0 1.008.637 1.008 1.426"/></g><g clip-path="url(#clip-ff9a14e9-1df3-44cf-a162-a7e4a8c3d851)"><path d="M11.643 40.079c0 .787-.45 1.426-1.008 1.426-.556 0-1.008-.639-1.008-1.426 0-.787.452-1.426 1.008-1.426.558 0 1.008.639 1.008 1.426"/></g><g clip-path="url(#clip-ff9a14e9-1df3-44cf-a162-a7e4a8c3d851)"><path d="M7.488 39.248c0 .788-.45 1.426-1.008 1.426-.557 0-1.008-.638-1.008-1.426 0-.787.451-1.426 1.008-1.426.558 0 1.008.639 1.008 1.426"/></g><g clip-path="url(#clip-ff9a14e9-1df3-44cf-a162-a7e4a8c3d851)"><path d="M3.357 40.083c0 .787-.452 1.425-1.008 1.425S1.34 40.87 1.34 40.083s.452-1.426 1.009-1.426c.557 0 1.008.637 1.008 1.426"/></g><g clip-path="url(#clip-ff9a14e9-1df3-44cf-a162-a7e4a8c3d851)"><path d="M29.152 35.42c0 .788.451 1.426 1.008 1.426.555 0 1.008-.638 1.008-1.426 0-.787-.451-1.426-1.008-1.426-.558 0-1.008.639-1.008 1.426"/></g><g clip-path="url(#clip-ff9a14e9-1df3-44cf-a162-a7e4a8c3d851)"><path d="M24.874 36.315c0 .787.452 1.426 1.008 1.426.555 0 1.008-.639 1.008-1.426 0-.787-.451-1.426-1.008-1.426-.558 0-1.008.638-1.008 1.426"/></g><g clip-path="url(#clip-ff9a14e9-1df3-44cf-a162-a7e4a8c3d851)"><path d="M20.779 35.286c0 .789.452 1.426 1.008 1.426s1.009-.637 1.009-1.426c0-.789-.452-1.425-1.009-1.425-.557 0-1.008.638-1.008 1.425"/></g><g clip-path="url(#clip-ff9a14e9-1df3-44cf-a162-a7e4a8c3d851)"><path d="M16.822 36.113c0 .787.452 1.426 1.008 1.426s1.008-.639 1.008-1.426c0-.788-.451-1.426-1.008-1.426-.557 0-1.008.638-1.008 1.426"/></g><g clip-path="url(#clip-ff9a14e9-1df3-44cf-a162-a7e4a8c3d851)"><path d="M18.593 40.267c0 .789.451 1.426 1.008 1.426.555 0 1.008-.637 1.008-1.426 0-.789-.452-1.426-1.008-1.426-.558 0-1.008.639-1.008 1.426"/></g><g clip-path="url(#clip-ff9a14e9-1df3-44cf-a162-a7e4a8c3d851)"><path d="M22.748 39.436c0 .789.451 1.426 1.008 1.426.555 0 1.008-.637 1.008-1.426 0-.788-.452-1.425-1.008-1.425-.558 0-1.008.638-1.008 1.425"/></g><g clip-path="url(#clip-ff9a14e9-1df3-44cf-a162-a7e4a8c3d851)"><path d="M26.88 40.271c0 .787.451 1.426 1.008 1.426.557 0 1.009-.639 1.009-1.426 0-.787-.453-1.426-1.009-1.426-.556 0-1.008.637-1.008 1.426"/></g></g></svg>