<svg xmlns="http://www.w3.org/2000/svg" style="enable-background:new 0 0 73 72.7;"  width="42" height="32" viewBox="0 0 42 32"><g><g><path d="M13.418 26.4c.134-2.778 3.017-4.207 5.794-2.999a4.533 4.533 0 0 1 1.759-1.18c-1.953-4.65-3.799-6.74-5.181-7.338C3.676 19.953 5.583 10.821 0 7.015 10.79 3.4 15.991 3.188 16.849 13.521c1.777 1.782 3.48 3.417 5.227 7.207C24.27 12.712 30.783 6.37 39.17 2.052c-8.177 3.58-11.674 5.995-15.111 11.467C19.885-1.1 33.512 3.582 41.482 0c-3.949 7.601-3.326 19.684-14.82 15.185-1.23 1.351-2.573 4.035-3.114 6.914 1.293.355 2.361 1.349 2.639 2.876 2.037-1.471 4.626.022 4.406 2.458 1.386-.51 3.342 1.297.677 1.457-5.987.36-6.597 2.254-10.037 2.254-2.64 0-1.497-1.305-7.84-2.047-4.42-.518-.89-2.82.026-2.697z"/></g></g></svg>