<svg xmlns="http://www.w3.org/2000/svg" width="31" height="34" viewBox="0 0 31 34"><g><g><path d="M23.712 23.951a.74.74 0 0 1 .305.735l-1.005 5.382 2.95 2.623a.753.753 0 0 1 .061 1.022.752.752 0 0 1-1.022.063l-3.255-2.894a.738.738 0 0 1-.226-.679l.994-5.314-1.04-.7c.143-.483.269-.977.374-1.482zm-14.85-1.244zm0 0c.105.504.229 1 .372 1.481l-1.04.701.995 5.314a.738.738 0 0 1-.226.679l-3.255 2.894a.752.752 0 0 1-1.023-.062.753.753 0 0 1 .063-1.023l2.95-2.623-1.006-5.382a.74.74 0 0 1 .305-.735zm14.93-5.743c.197.035.379.157.485.328l2.385 3.753 3.029 1.007c.362.12.582.56.46.922a.756.756 0 0 1-.923.457l-3.255-1.086a.73.73 0 0 1-.385-.305l-2.362-3.708-1.028-.17c-.02-.49-.051-.989-.102-1.481zm-15.19-.283c-.052.492-.082.99-.102 1.481l-1.04.17-2.35 3.708a.73.73 0 0 1-.374.305l-3.255 1.086a.756.756 0 0 1-.924-.457.756.756 0 0 1 .46-.922l3.018-1.007 2.385-3.753a.733.733 0 0 1 .497-.328l1.685-.283zm11.358-5.45zm0 0c1.02 2.174 1.537 5.158 1.537 7.892 0 5.312-2.738 10.626-5.425 11.465V11.605c1.175-.027 2.606-.11 3.888-.373zm-5.334.374v18.983C11.938 29.749 9.2 24.435 9.2 19.123c0-2.734.517-5.718 1.537-7.891 1.251.242 2.517.335 3.888.373zM19.1 7.58c.63.636.79 1.447.35 2.272-1.306.271-2.68.278-4.102.317-1.22-.002-2.75-.05-4.103-.317-.438-.825-.269-1.636.362-2.272.957-.302 2.35-.486 3.74-.486 1.391 0 2.793.184 3.753.486zm7.968-2.216c.435-.027.833.418.757.848l-.361 2.17a.727.727 0 0 1-.181.362l-2.893 3.257a.726.726 0 0 1-.283.203l-2.667.995a15.38 15.38 0 0 0-.453-1.368l2.442-.916 2.633-2.962.328-1.979a.746.746 0 0 1 .678-.61zm-23.53 0a.75.75 0 0 1 .779.61l.328 1.979 2.633 2.962 2.441.916c-.17.44-.317.895-.452 1.368l-2.667-.995A.722.722 0 0 1 6.32 12L3.425 8.744a.727.727 0 0 1-.18-.361l-.362-2.171c-.07-.396.254-.817.655-.848zm14.816.542a16.338 16.338 0 0 0-3.006-.26c-1.043 0-2.073.082-3.006.26.54-1.317 1.879-1.978 3.006-1.978 1.126 0 2.466.663 3.006 1.978zM21.621.672c2.242.097 4.807.94 7.697 1.842.361.116.584.55.469.91a.752.752 0 0 1-.91.47c-2.896-.906-5.395-1.692-7.312-1.775-1.78-.077-2.984.316-3.922 1.798a4.126 4.126 0 0 0-1.334-.588c.89-1.932 3.105-2.69 5.312-2.657zm-12.534 0c1.989-.066 4.108.708 5.312 2.645a4.094 4.094 0 0 0-1.333.6c-.939-1.482-2.142-1.876-3.922-1.798-1.917.083-4.416.87-7.312 1.775a.752.752 0 0 1-.91-.47.753.753 0 0 1 .469-.91C4.28 1.611 6.845.77 9.087.672z"/></g></g></svg>