<svg xmlns="http://www.w3.org/2000/svg" width="42" height="42" viewBox="0 0 42 42"><g><g clip-path="url(#clip-fc9979b5-682d-4d32-858e-532180f2e1f2)"><path d="M5.839 15.985L8.41 5.701l5.451 1.8c1.183.411 1.851 1.542 1.749 2.776a17.869 17.869 0 0 0-7.097 6.583zm8.073 7.713c1.132-4.422 5.143-7.713 9.925-7.713 4.782 0 8.793 3.291 9.925 7.713h7.867a17.383 17.383 0 0 0-2.211-6.427l2.417-1.389c-1.8-3.137-4.474-5.759-7.61-7.61l-1.389 2.417a17.843 17.843 0 0 0-8.999-2.417c-.565 0-1.131.051-1.697.103l-.874-2.674L5.839.558 3.268 3.13v2.571L.697 15.985l2.571 2.571 3.754 1.234a18.985 18.985 0 0 0-1.029 3.908z"/></g><g clip-path="url(#clip-fc9979b5-682d-4d32-858e-532180f2e1f2)"><path d="M23.837 23.699a2.547 2.547 0 0 1 2.571 2.571 2.547 2.547 0 0 1-2.571 2.572 2.547 2.547 0 0 1-2.571-2.572zm5.143 2.571c0-2.828-2.315-5.142-5.143-5.142s-5.143 2.314-5.143 5.142H5.839v2.572H8.41l1.183 3.341.565-1.337a.912.912 0 0 1 1.698 0c.102.207.102.463 0 .721L10.621 34.6l2.365 2.623v-1.44c0-.822.978-1.233 1.543-.668a.973.973 0 0 1 .257.668v3.24l3.189 1.542-.566-1.337c-.308-.77.463-1.491 1.183-1.182.206.103.411.257.515.514l1.233 3.035 3.497.102-1.028-1.028c-.566-.566-.155-1.543.668-1.543.257 0 .463.102.669.257l2.262 2.314 3.342-1.183-1.337-.565a.912.912 0 0 1 0-1.697c.206-.103.463-.103.721 0l3.033 1.234 2.623-2.366h-1.44c-.823 0-1.234-.977-.668-1.542a.978.978 0 0 1 .668-.258h3.24l1.542-3.187-1.337.565c-.77.309-1.491-.463-1.183-1.183.104-.206.258-.411.515-.514l3.034-1.234.051-.977h2.623v-2.571H28.98z"/></g></g></svg>