<svg xmlns="http://www.w3.org/2000/svg" width="51" height="33" viewBox="0 0 51 33"><g><g clip-path="url(#clip-4dd2cf9d-c317-4132-b7ed-ff6382db1e74)"><path d="M7.364 20.786c.08-.021.163-.045.242-.07l.397-.126-.085-.408a4.787 4.787 0 0 0-2.272-3.161 4.745 4.745 0 0 0-3.625-.496l-.042.011-.869-.507-.467.797.869.508a4.8 4.8 0 0 0 2.225 2.956 4.751 4.751 0 0 0 3.627.496"/></g><g clip-path="url(#clip-4dd2cf9d-c317-4132-b7ed-ff6382db1e74)"><path d="M11.895 16.501l.135.159.172-.117a3.478 3.478 0 0 0 1.488-2.4 3.48 3.48 0 0 0-.526-2.36l.141-1.037-.916-.126-.142 1.037a3.476 3.476 0 0 0-.352 4.844"/></g><g clip-path="url(#clip-4dd2cf9d-c317-4132-b7ed-ff6382db1e74)"><path d="M5.474 14.446l.507-.869.041-.01a4.76 4.76 0 0 0 2.915-2.213 4.793 4.793 0 0 0 .426-3.87l-.127-.396-.408.084a4.743 4.743 0 0 0-3.16 2.272 4.794 4.794 0 0 0-.486 3.668l-.508.869z"/></g><g clip-path="url(#clip-4dd2cf9d-c317-4132-b7ed-ff6382db1e74)"><path d="M49.662 16.636a.456.456 0 0 1-.222.281l-1.405.776-.446-.811.994-.547-2.529-4.413-1.007.556-.447-.808 1.405-.776a.462.462 0 0 1 .625.174l2.988 5.214zm-9.152.821a.922.922 0 0 1 .364-1.254l2.675-1.469a.927.927 0 0 1 1.256.367zm3.776 2.342a.747.747 0 1 1-.456-1.423.747.747 0 0 1 .914.534zm-1.476 4.405a7.08 7.08 0 0 1-4.06 2.861 7.086 7.086 0 0 1-5.382-.733l.468-.799a6.184 6.184 0 0 0 8.444-2.216l.797.465zm-16.022-3.149l-.451-.806 4.582-2.503a.464.464 0 0 1 .628.183.464.464 0 0 1-.184.628zm4.822.166l-3.609 1.997-.452-.807 3.612-1.997a.462.462 0 0 1 .629.18zm-6.487-3.135l5.553-3.009a.463.463 0 0 1 .44.814l-5.541 3.001zm2.052-4.895a.75.75 0 1 1-.534.914zm7.758 2.602l2.239-1.331a.46.46 0 0 1 .625.148s1.488 2.307 1.552 2.422l.005.011a3.232 3.232 0 0 1-2.007 4.678 3.233 3.233 0 0 1-3.942-2.302zm1.311-1.766l-.776.501-.534-.829-.741.44a.922.922 0 0 1-1.266-.321.92.92 0 0 1 .32-1.266l2.241-1.333a.926.926 0 1 1 .945 1.589l-.704.418zm6.491-1.33a2.013 2.013 0 0 1-1.995 2.04 2.008 2.008 0 0 1-1.432-.576 2.016 2.016 0 0 1 1.387-3.46zM29.581 8.094a.924.924 0 0 0 .604-1.278 351.622 351.622 0 0 1 4.375-2.404c2.38-1.272 5.134-.856 6.138.925a736.823 736.823 0 0 0 2.381 4.189l-.188.102a11.055 11.055 0 0 0-12.062-.405l-2.686 1.495-1.126-1.951zm21.244 7.515c-.05-.087-5.013-8.725-6.906-12.087C42.917 1.743 41.166.538 38.99.13c-2.032-.383-4.224-.02-6.172 1.02-2.49 1.329-9.317 5.162-9.72 5.388l-1.535.854a1.85 1.85 0 0 0 1.297 3.423l1.242 2.151-4.298 2.391.449.808-4.922 2.738-.449-.808-5.614 3.122.45.808-6.728 3.741 2.697 4.848 6.726-3.743.449.809 5.614-3.123-.449-.808 4.922-2.739.449.809 1.728-.959s.635 1.123 1.37 2.472c.879 1.611 1.922 3.077 3.323 4.149l-1.581 2.706a1.387 1.387 0 1 0 2.396 1.4l1.581-2.707a11.006 11.006 0 0 0 7.15.527 11.01 11.01 0 0 0 5.839-3.805l2.55 1.489a1.387 1.387 0 1 0 1.398-2.395l-2.504-1.462a11.06 11.06 0 0 0 .95-3.744l2.494-1.33c.441-.235.769-.639.907-1.12z"/></g></g></svg>