<svg xmlns="http://www.w3.org/2000/svg" width="58" height="31" viewBox="0 0 58 31"><g><g><g><path fill="#7d7d7d" d="M7.66 26.17a4.502 4.502 0 1 1 9.003 0 4.502 4.502 0 0 1-9.004 0z"/></g><g><path fill="#7d7d7d" d="M40.671 26.17a4.502 4.502 0 1 1 9.004 0 4.502 4.502 0 0 1-9.004 0z"/></g><g><path fill="#7d7d7d" d="M12.161 15.666H3.158V6.663h9.003zM21.163.66v16.506h-1.5V3.662H.156v22.507h6.002a6.001 6.001 0 0 1 6.001-6.001 6.001 6.001 0 0 1 6.002 6.001h21.008a6.001 6.001 0 0 1 6.002-6.001 6.001 6.001 0 0 1 6.002 6.001h6.003V.661z"/></g></g></g></svg>