<svg xmlns="http://www.w3.org/2000/svg" width="34" height="39" viewBox="0 0 34 39"><g><g><path fill="#7d7d7d" d="M29.384 19.333c0-6.805-5.517-12.322-12.322-12.322-6.805 0-12.323 5.517-12.323 12.322 0 6.805 5.518 12.323 12.323 12.323 6.805 0 12.322-5.518 12.322-12.323zm3.955-4.69c0 2.437 0 4.828-.092 7.265-.138 2.713-1.196 5.104-2.759 7.265-2.253 3.08-5.288 5.334-8.598 7.08-1.426.737-2.897 1.334-4.368 1.978-.23.092-.552.138-.828.046-4.23-1.61-8.092-3.77-11.31-7.035-2.024-2.023-3.587-4.414-4.231-7.219-.23-1.057-.414-2.207-.414-3.31-.046-4.414 0-8.874 0-13.288 0-.828.138-1.012.966-1.058C7.13 6.045 11.82 3.792 16.235.757c.781-.551.827-.551 1.609 0 3.31 2.3 6.85 4.185 10.85 5.058 1.242.276 2.53.368 3.817.552.598.092.828.276.828.874v7.402zm-12.737 9.564a4.155 4.155 0 0 1-2.069 1.334c-.368.092-.505.276-.505.643v1.104c0 .322-.184.506-.506.506h-1.196c-.322 0-.506-.184-.506-.552v-.782c0-.598-.045-.598-.597-.69-.736-.091-1.426-.275-2.07-.597-.505-.23-.551-.368-.413-.92.092-.414.23-.827.368-1.195.138-.46.276-.506.69-.322a6.972 6.972 0 0 0 2.298.69c.506.046 1.058 0 1.518-.184.92-.414 1.057-1.426.276-2.07-.276-.23-.552-.367-.874-.505-.782-.368-1.61-.598-2.39-1.058-1.196-.735-1.978-1.747-1.886-3.218.092-1.656 1.057-2.713 2.575-3.265.643-.23.643-.23.643-.873v-.69c0-.506.092-.598.598-.598h.46c1.058 0 1.058 0 1.058 1.058 0 .735 0 .735.735.873.552.092 1.104.276 1.655.506.276.138.414.322.322.644l-.413 1.38c-.138.413-.276.505-.69.275-.828-.414-1.701-.552-2.621-.506-.23 0-.46.046-.69.138-.781.322-.92 1.196-.23 1.747.322.276.736.46 1.15.644.69.276 1.38.552 2.069.92 2.161 1.103 2.713 3.724 1.241 5.563z"/></g></g></svg>