<?xml version="1.0" encoding="utf-8"?><svg xmlns="http://www.w3.org/2000/svg" xmlns:xlink="http://www.w3.org/1999/xlink"><symbol viewBox="0 0 22 24" id="basket" xmlns="http://www.w3.org/2000/svg"><g clip-path="url(#aclip0)"><path d="M10.363 18.443a2.046 2.046 0 00-2.045 2.042 2.046 2.046 0 004.09 0 2.046 2.046 0 00-2.045-2.042zm6.134 0a2.046 2.046 0 00-2.045 2.042 2.046 2.046 0 004.089 0 2.046 2.046 0 00-2.044-2.042zm3.978-8.199L7.413 6.891a.614.614 0 00-.75.73L8.67 16.4h-.786L5.482 5.895a.613.613 0 00-.474-.464l-4.27-.882A.614.614 0 00.489 5.75l3.885.802L6.797 17.15a.613.613 0 00.598.477h12.07a.615.615 0 00.607-.53l.858-6.175a.613.613 0 00-.455-.678zm-8.14 3.91a.613.613 0 01-1.227 0v-2.696a.613.613 0 011.227 0v2.696zm2.625 0a.613.613 0 01-1.227 0v-1.88a.613.613 0 011.227 0v1.88zm2.625 0a.613.613 0 01-1.227 0v-1.226a.613.613 0 011.227 0v1.226z"/></g><path fill-rule="evenodd" clip-rule="evenodd" d="M16.268 4.568a2.996 2.996 0 00-1.693-.523c-.627 0-1.21.193-1.693.523-.28-.843-.492-1.752-.492-2.383C12.39.98 13.37 0 14.575 0s2.185.98 2.185 2.185c0 .631-.212 1.54-.492 2.383zm-4.722 2.274l.024.006v-.011l-.024.005zm4.972 1.217c-1.333-.33-2.766-.681-4.129-1.013a2.185 2.185 0 114.129 1.013zm4.436 1.103c-.866-.217-2.155-.538-3.618-.9a2.995 2.995 0 00.243-1.425c.87.18 1.762.45 2.308.765.596.344.969.928 1.067 1.56zM9.869 6.439c-.36-.086-.706-.167-1.03-.243a2.19 2.19 0 01-.376-2.667 2.188 2.188 0 013.147-.7c.098.738.338 1.599.61 2.353a3.01 3.01 0 00-.449.774c-.628.113-1.305.278-1.902.483zm10.124.075a3.43 3.43 0 01-.217.114c-.696-.295-1.587-.526-2.397-.672a3.01 3.01 0 00-.449-.774c.262-.727.494-1.553.599-2.273.095-.067.189-.128.278-.18a2.188 2.188 0 012.986.8 2.188 2.188 0 01-.8 2.985z"/><defs><clipPath id="aclip0"><path transform="translate(0 3.064)" d="M0 0h20.936v20.936H0z"/></clipPath></defs></symbol><symbol viewBox="0 0 12 11" id="book" xmlns="http://www.w3.org/2000/svg"><path d="M9.606.64a.124.124 0 00-.157-.08l-.006.003c-.407.139-1.818.683-3.364 2.008a.051.051 0 00.06.082 12.21 12.21 0 013.52-1.49.124.124 0 00.09-.176zM6.453 3.194a12.141 12.141 0 014.222-.957.124.124 0 00.124-.154l-.075-.415a.124.124 0 00-.14-.105h-.007c-.462.061-2.177.356-4.152 1.573a.035.035 0 00.033.06zm4.994 6.458V3.07a.278.278 0 00-.266-.272H11a11.6 11.6 0 00-4.772 1.118.297.297 0 00-.17.27v6.595a.22.22 0 00.31.2 11.55 11.55 0 014.633-1.053h.166a.277.277 0 00.279-.276zM5.327 2.66a.051.051 0 00.062-.082C3.84 1.247 2.43.703 2.024.563a.124.124 0 00-.16.07L1.86.638l-.14.354a.124.124 0 00.09.175c1.244.308 2.43.81 3.518 1.487zM.746 1.674l-.076.415a.124.124 0 00.124.154c1.454.064 2.884.388 4.223.957a.035.035 0 00.032-.06C3.066 1.918 1.352 1.623.89 1.564a.124.124 0 00-.144.1l-.001.005zM.287 2.798a.278.278 0 00-.266.272v6.583a.277.277 0 00.28.275h.166c1.6.026 3.179.385 4.633 1.053a.22.22 0 00.31-.2V4.179a.297.297 0 00-.17-.27A11.594 11.594 0 00.466 2.793z"/></symbol><symbol viewBox="0 0 31 16" id="car-long" xmlns="http://www.w3.org/2000/svg"><path d="M4 13.6a2.4 2.4 0 114.8 0 2.4 2.4 0 01-4.8 0zm17.6 0a2.4 2.4 0 114.801 0 2.4 2.4 0 01-4.8 0z"/><path d="M6.4 8H1.6V3.2h4.8zm4.8-8v8.8h-.8V1.6H0v12h3.2a3.2 3.2 0 116.4 0h11.2a3.2 3.2 0 116.4 0h3.2V0z"/></symbol><symbol viewBox="0 0 344.96 344.96" id="check" xmlns="http://www.w3.org/2000/svg"><g data-name="Слой 2"><path d="M321.85 86.24l-40-23.11-23.1-40H212.5L172.48 0l-40 23.11H86.24l-23.11 40-40 23.1v46.21L0 172.48l23.11 40v46.21l40 23.11 23.11 40h46.21l40 23.1 40-23.11h46.21l23.11-40 40-23.11V212.5l23.11-40-23.11-40V86.24zM156.91 243.07a16.79 16.79 0 01-23.34 0l-50.45-50.44a16.19 16.19 0 010-22.89l13.35-13.35a16.19 16.19 0 0122.89 0l25.87 25.87 80.34-80.35a16.19 16.19 0 0122.89 0l13.35 13.35a16.19 16.19 0 010 22.89z" data-name="Capa 1"/></g></symbol><symbol viewBox="0 0 8 13" id="chevron-left" xmlns="http://www.w3.org/2000/svg"><path d="M.703 5.747a.935.935 0 00-.268.643c0 .24.107.482.268.643l4.901 4.901a.922.922 0 001.286 0 .922.922 0 000-1.285l-4.232-4.26 4.232-4.23a.87.87 0 00.268-.643c0-.241-.08-.482-.268-.643a.922.922 0 00-1.286 0z"/></symbol><symbol viewBox="0 0 4.305 7.417" id="chevron-right" xmlns="http://www.w3.org/2000/svg"><path d="M4.133 4.128a.58.58 0 000-.823L.995.167A.582.582 0 00.172.99l2.71 2.727-2.71 2.71a.557.557 0 00-.167.411.532.532 0 00.167.412.59.59 0 00.823 0z"/></symbol><symbol viewBox="0 0 56 56" id="clean-icon-1" xmlns="http://www.w3.org/2000/svg"><defs><clipPath id="ga"><path d="M0 56V0h56v56z"/></clipPath></defs><path d="M0 56V0h56v56z"/><g clip-path="url(#ga)"><path d="M27.812 27.811c0 7.681-6.226 13.906-13.906 13.906C6.23 41.717 0 35.492 0 27.81c0-7.68 6.229-13.906 13.906-13.906 7.68 0 13.906 6.227 13.906 13.906"/></g><g clip-path="url(#ga)"><path d="M31.289 41.717a6.954 6.954 0 11-.002 13.907 6.954 6.954 0 01.002-13.907"/></g><g clip-path="url(#ga)"><path d="M55.624 46.352a4.636 4.636 0 00-4.635 4.635H48.67a4.638 4.638 0 00-4.635-4.635v-2.318A4.635 4.635 0 0048.67 39.4h2.318a4.638 4.638 0 004.635 4.635z"/></g><g clip-path="url(#ga)"><path d="M16.224 46.352a2.317 2.317 0 110 4.635 2.317 2.317 0 010-4.635"/></g><g clip-path="url(#ga)"><path d="M2.317 9.27a2.317 2.317 0 110 4.635 2.317 2.317 0 010-4.635"/></g><g clip-path="url(#ga)"><path d="M15.065 2.317a3.477 3.477 0 110 6.954 3.477 3.477 0 010-6.954"/></g><g clip-path="url(#ga)"><path d="M9.27 52.146a3.474 3.474 0 01-3.476 3.477 3.477 3.477 0 113.477-3.477"/></g><g clip-path="url(#ga)"><path d="M46.354 18.54a9.267 9.267 0 00-9.271-9.27V4.635c2.142 0 4.171.484 5.984 1.349L37.083 0C29.74 0 23.414 4.28 20.41 10.47c7.02 2.643 12.037 9.409 12.037 17.341 0 2.896-.684 5.628-1.874 8.07 2.027.766 4.214 1.2 6.509 1.2 10.24 0 18.541-8.3 18.541-18.54l-5.985-5.985a13.856 13.856 0 011.35 5.985zM43.067 5.985a13.957 13.957 0 016.572 6.572z"/></g></symbol><symbol viewBox="0 0 24 24" id="fb" xmlns="http://www.w3.org/2000/svg"><path d="M13.397 20.997v-8.196h2.765l.411-3.209h-3.176V7.548c0-.926.258-1.56 1.587-1.56h1.684v-2.86A22.108 22.108 0 0014.201 3c-2.444 0-4.122 1.492-4.122 4.231v2.355H7.332v3.21h2.753v8.201h3.312z"/></symbol><symbol viewBox="0 0 28 25" id="heart" xmlns="http://www.w3.org/2000/svg"><path d="M14.2 25.181S.864 12.973.649 8.08C.433 4.046 3.928.82 7.908.82c2.69 0 5.056 1.452 6.293 3.603C15.438 2.271 17.804.819 20.493.819c4.034 0 7.26 3.28 7.26 7.26 0 4.518-13.552 17.102-13.552 17.102z"/></symbol><symbol viewBox="0 0 25.758 25.759" id="instagram" xmlns="http://www.w3.org/2000/svg"><defs><clipPath id="ja"><path d="M0 0h34v34H0z"/></clipPath></defs><g clip-path="url(#ja)"><path d="M3.306 0h19.146a3.228 3.228 0 013.306 3.306v19.146a3.228 3.228 0 01-3.306 3.306H3.306A3.228 3.228 0 010 22.452V3.306A3.228 3.228 0 013.306 0m15.458 2.862a1.162 1.162 0 00-1.164 1.16V6.8a1.163 1.163 0 001.159 1.16h2.911a1.163 1.163 0 001.16-1.16V4.022a1.163 1.163 0 00-1.16-1.16zm4.083 8.031H20.58a7.534 7.534 0 01.331 2.21 7.885 7.885 0 01-8.011 7.758 7.885 7.885 0 01-8-7.761 7.521 7.521 0 01.331-2.21H2.862v10.884A1.027 1.027 0 003.886 22.8h17.938a1.027 1.027 0 001.024-1.024V10.893zM12.9 7.811a5.1 5.1 0 00-5.17 5.012 5.1 5.1 0 005.17 5.013 5.1 5.1 0 005.174-5.013A5.1 5.1 0 0012.9 7.811"/></g></symbol><symbol viewBox="0 0 22 18" id="mail" xmlns="http://www.w3.org/2000/svg"><path d="M20.778 18H1.222A1.257 1.257 0 010 16.713V1.721l10.188 9.525a1.175 1.175 0 001.624 0L22 1.721v14.992A1.257 1.257 0 0120.778 18zM11 8.565L1.839 0h18.322L11 8.564z"/></symbol><symbol viewBox="0 0 30 26" id="pen" xmlns="http://www.w3.org/2000/svg"><defs><clipPath id="la"><path data-name="Прямоугольник 92" transform="translate(0 .474)" d="M0 0h30v26H0z"/></clipPath></defs><g data-name="Сгруппировать 180" transform="translate(0 -.474)" clip-path="url(#la)"><path data-name="Контур 259" d="M23.161-.12a.982.982 0 01.578.3l5.211 5.517a1.01 1.01 0 01-.03 1.358L12.373 23.272a.979.979 0 01-.385.233l-3.214 1.022h9.835a.974.974 0 11-.1 1.946H.987a.973.973 0 110-1.946h2.636L4.89 17.22a.981.981 0 01.284-.537L22.36.143a.988.988 0 01.8-.263M23 2.244l-.707.686 4 4.084.649-.649C25.623 5.01 24.319 3.551 23 2.244m-2.11 2.034L7.426 17.23l1.46 1.277L22.157 5.545zm2.636 2.635L10.355 19.784l1.481 1.3 13.059-12.8zM6.564 19.054l-.77 4.378 4.228-1.348z"/></g></symbol><symbol viewBox="0 0 16 15" id="phone" xmlns="http://www.w3.org/2000/svg"><path d="M14.822 10.889l-3.03-1.562a1.01 1.01 0 00-1.248.266l-1.11 1.42c-1.077-.577-1.904-1.14-2.857-2.092C5.562 7.906 5.016 7.063 4.47 6.017l1.406-1.093a.991.991 0 00.265-1.25L4.578.661A.998.998 0 003.142.286l-1.936 1.28A1.52 1.52 0 00.55 2.91c.03.547.109 1.234.234 1.718.562 2.155 1.905 4.388 3.794 6.277 1.89 1.905 4.123 3.248 6.278 3.81.484.125 1.171.188 1.733.235a1.52 1.52 0 001.359-.687l1.249-1.952a.987.987 0 00-.375-1.421z"/></symbol><symbol viewBox="0 0 9 12" id="s-icon" xmlns="http://www.w3.org/2000/svg"><path d="M2.695 9.69h3.08L4.236 12zM6.61 3.916c-.01.087-.045.27-.045.27H5.07s.027-.127-.007-.197a.456.456 0 00-.152-.154.552.552 0 00-.276-.086c-.128 0-.148-.003-.287.036-.138.038-.275.175-.284.276-.008.101.005.138.04.173.05.04.112.082.294.118a15.915 15.915 0 001.052.235c.164.045.292.109.4.175.11.066.208.154.263.226a.71.71 0 01.147.317c.02.132.019.172.004.27-.014.1-.017.157-.085.34-.06.147-.028.11-.153.328-.04.059-.06.112-.258.335-.149.133-.16.154-.287.245a2.37 2.37 0 01-.454.245c-.194.078-.38.123-.472.148-.093.025-.43.073-.56.083-.131.01-.517.009-.733-.013a3.069 3.069 0 01-.504-.095 2.691 2.691 0 01-.416-.182 1.337 1.337 0 01-.299-.263c-.088-.113-.093-.135-.148-.259a.933.933 0 01-.036-.273c0-.103.046-.416.046-.416h1.56s-.016.068-.014.131a.37.37 0 00.045.17.346.346 0 00.074.1.343.343 0 00.123.065.808.808 0 00.181.03c.078.006.157 0 .263-.015.106-.015.197-.058.197-.058s.148-.076.197-.146c.048-.07.1-.16.073-.233-.028-.073-.02-.054-.076-.11-.056-.057-.082-.06-.163-.09a2.617 2.617 0 00-.339-.08c-.108-.02-.554-.117-.473-.092a4.475 4.475 0 01-.488-.146 1.21 1.21 0 01-.365-.212.888.888 0 01-.21-.243.531.531 0 01-.075-.28 1.536 1.536 0 01.132-.607 1.92 1.92 0 01.168-.285c.058-.073.213-.24.257-.276.044-.036.243-.185.348-.234.104-.05.248-.124.423-.175.43-.146.697-.16.914-.169.218-.01.443-.003.593.011.15.015.448.07.535.092.087.023.378.137.496.248.118.111.152.14.255.328.06.171.083.307.073.394zM4.234.836C1.925.836 0 2.762 0 5.072c0 2.31 1.925 4.235 4.235 4.235 2.31 0 4.236-1.925 4.236-4.235 0-2.31-1.925-4.236-4.236-4.236z"/></symbol><symbol viewBox="0 0 11.065 11.978" id="tel" xmlns="http://www.w3.org/2000/svg"><path data-name="Контур 2" d="M10.823 9.33l-.067-.133c-.186-.44-2.478-1.106-2.664-1.119l-.147.013c-.28.053-.586.306-1.185.826a.362.362 0 01-.426.053A10.46 10.46 0 014.11 7.119a8.366 8.366 0 01-1.439-2.278.4.4 0 01.107-.413c.679-.613.972-.906 1-1.225.013-.186-.386-2.544-.8-2.771L2.854.35a1.51 1.51 0 00-1.1-.33 1.222 1.222 0 00-.306.12A4 4 0 00.087 1.485a9.466 9.466 0 002.5 7.313 8.657 8.657 0 006.704 3.152h.013l.04-.013a3.941 3.941 0 001.51-1.181 1.279 1.279 0 00-.031-1.426z"/></symbol><symbol viewBox="0 0 16 16" id="telegram" xmlns="http://www.w3.org/2000/svg"><path d="M14.629 3.698l-2.012 9.618c-.152.679-.548.848-1.11.528l-3.066-2.29-1.48 1.442c-.163.166-.3.305-.616.305l.22-3.165 5.683-5.204c.247-.223-.054-.347-.384-.123L4.839 9.29l-3.024-.959c-.658-.208-.67-.667.137-.986L13.78 2.727c.548-.208 1.027.124.849.971z"/></symbol><symbol viewBox="0 0 16 16" id="viber" xmlns="http://www.w3.org/2000/svg"><path d="M8 1.335c-1.071.013-3.374.19-4.662 1.37-.958.948-1.292 2.35-1.331 4.084-.033 1.728-.072 4.973 3.058 5.856v1.346s-.02.538.337.648c.438.14.688-.275 1.105-.72l.778-.879c2.142.178 3.782-.232 3.97-.293.435-.139 2.883-.451 3.283-3.696.41-3.351-.2-5.463-1.301-6.418h-.007c-.332-.306-1.668-1.279-4.652-1.29 0 0-.222-.014-.578-.008zm.037.942a7.02 7.02 0 01.488.011c2.527.007 3.732.767 4.017 1.023.927.794 1.405 2.697 1.055 5.495-.332 2.713-2.317 2.885-2.685 3.002-.156.05-1.6.406-3.42.289 0 0-1.356 1.634-1.78 2.055-.067.074-.146.095-.196.085-.071-.018-.093-.107-.089-.229l.013-2.233c-2.655-.733-2.498-3.5-2.47-4.946.033-1.446.304-2.628 1.113-3.43 1.088-.982 3.043-1.115 3.953-1.122zm.2 1.446a.166.166 0 100 .332 3.136 3.136 0 012.242.883c.606.588.9 1.378.912 2.411 0 .092.074.167.167.167V7.51a.167.167 0 00.168-.165 3.588 3.588 0 00-1.009-2.646c-.66-.645-1.496-.977-2.48-.977zm-2.198.382a.523.523 0 00-.342.067H5.69a2.61 2.61 0 00-.637.523 1.003 1.003 0 00-.256.525.71.71 0 00.026.302l.01.006c.172.504.396.988.67 1.444a8.48 8.48 0 001.29 1.762l.015.022.024.017.015.018.017.015c.532.505 1.127.94 1.769 1.295.734.4 1.18.588 1.447.667v.004c.078.024.15.034.221.034.228-.016.444-.109.613-.262a2.53 2.53 0 00.517-.638v-.004c.128-.241.085-.469-.1-.623-.37-.323-.77-.61-1.195-.857-.285-.155-.574-.061-.69.095l-.25.315c-.129.156-.361.134-.361.134l-.007.004C7.093 8.527 6.63 6.772 6.63 6.772s-.022-.239.139-.36l.312-.252c.15-.122.254-.41.094-.695a7.498 7.498 0 00-.856-1.194.475.475 0 00-.28-.167zm2.486.495c-.221 0-.221.334.003.334A2.098 2.098 0 0110 5.572 1.94 1.94 0 0110.5 7a.168.168 0 00.167.165l.007.009a.169.169 0 00.167-.167c.015-.662-.191-1.218-.595-1.663C9.84 4.9 9.273 4.65 8.549 4.6h-.024zm.274.898c-.228-.006-.236.335-.01.341.55.029.816.306.851.877a.166.166 0 00.165.163h.007a.168.168 0 00.16-.178c-.039-.744-.445-1.164-1.166-1.202H8.8z"/></symbol><symbol viewBox="0 0 24 24" id="vk" xmlns="http://www.w3.org/2000/svg"><path d="M21.579 6.855c.14-.465 0-.806-.662-.806h-2.193c-.558 0-.813.295-.953.619 0 0-1.115 2.719-2.695 4.482-.51.513-.743.675-1.021.675-.139 0-.341-.162-.341-.627V6.855c0-.558-.161-.806-.626-.806H9.642c-.348 0-.558.258-.558.504 0 .528.79.65.871 2.138v3.228c0 .707-.127.836-.407.836-.743 0-2.551-2.73-3.624-5.853-.209-.607-.42-.852-.98-.852H2.752c-.627 0-.752.295-.752.619 0 .582.743 3.462 3.461 7.27 1.812 2.602 4.363 4.012 6.687 4.012 1.393 0 1.565-.313 1.565-.853v-1.966c0-.626.133-.752.574-.752.324 0 .882.164 2.183 1.417 1.486 1.486 1.732 2.153 2.567 2.153h2.192c.626 0 .939-.313.759-.931-.197-.615-.907-1.51-1.849-2.57-.512-.603-1.277-1.253-1.51-1.578-.325-.42-.231-.604 0-.976.001 0 2.672-3.761 2.95-5.04z"/></symbol><symbol viewBox="0 0 16 16" id="whatsapp" xmlns="http://www.w3.org/2000/svg"><path fill-rule="evenodd" clip-rule="evenodd" d="M12.269 3.755A5.947 5.947 0 008.035 2 5.994 5.994 0 002.05 7.985a5.98 5.98 0 00.799 2.992L2 14.077l3.173-.832c.877.477 1.86.728 2.86.728h.002a5.993 5.993 0 005.533-8.276 5.953 5.953 0 00-1.3-1.942zm-4.234 9.208h-.002c-.89 0-1.765-.24-2.532-.694l-.181-.108-1.883.494.502-1.835-.118-.188a4.965 4.965 0 01-.76-2.647 4.982 4.982 0 016.88-4.597c.604.25 1.152.618 1.613 1.081a4.946 4.946 0 011.455 3.52 4.982 4.982 0 01-4.974 4.974zm2.729-3.726c-.15-.075-.885-.436-1.022-.486-.137-.05-.236-.075-.336.074-.1.15-.387.486-.474.586-.087.1-.175.112-.324.038-.15-.075-.631-.233-1.203-.742a4.505 4.505 0 01-.832-1.036c-.087-.15-.009-.231.066-.306.068-.066.15-.174.224-.262.075-.087.1-.149.15-.249.05-.1.025-.187-.013-.262-.037-.075-.337-.811-.461-1.11-.121-.29-.244-.252-.336-.256a6.418 6.418 0 00-.286-.005.55.55 0 00-.4.186c-.137.15-.523.512-.523 1.248s.536 1.447.61 1.547c.075.1 1.055 1.61 2.555 2.258.358.154.636.246.853.315.358.114.684.098.942.06.287-.043.885-.362 1.01-.711.124-.35.124-.649.087-.711-.038-.063-.138-.101-.287-.176z"/></symbol><symbol class="tsvg-inline--fa tfa-youtube tfa-w-18" viewBox="0 0 576 512" id="youtube" xmlns="http://www.w3.org/2000/svg"><path d="M549.655 124.083c-6.281-23.65-24.787-42.276-48.284-48.597C458.781 64 288 64 288 64S117.22 64 74.629 75.486c-23.497 6.322-42.003 24.947-48.284 48.597-11.412 42.867-11.412 132.305-11.412 132.305s0 89.438 11.412 132.305c6.281 23.65 24.787 41.5 48.284 47.821C117.22 448 288 448 288 448s170.78 0 213.371-11.486c23.497-6.321 42.003-24.171 48.284-47.821 11.412-42.867 11.412-132.305 11.412-132.305s0-89.438-11.412-132.305zm-317.51 213.508V175.185l142.739 81.205-142.739 81.201z"/></symbol><symbol viewBox="0 0 17 16" id="zoom" xmlns="http://www.w3.org/2000/svg"><path d="M2.618 6.433a4.495 4.495 0 118.99 0 4.495 4.495 0 01-8.99 0zm13.906 7.635l-4.177-4.176A6.273 6.273 0 10.84 6.432a6.274 6.274 0 009.733 5.233l4.176 4.177z"/></symbol></svg>