<svg xmlns="http://www.w3.org/2000/svg" xmlns:xlink="http://www.w3.org/1999/xlink" width="15" height="14"
     viewBox="0 0 15 14">
    <defs>
        <clipPath id="clip-path">
            <rect id="Rectangle_110" data-name="Rectangle 110" width="15" height="14" transform="translate(0 0)"
                  fill="#db3232"/>
        </clipPath>
    </defs>
    <g id="Group_230" data-name="Group 230" transform="translate(14.967 14) rotate(180)">
        <g id="Group_222" data-name="Group 222" transform="translate(-0.033 0)" clip-path="url(#clip-path)">
            <path id="Path_278" data-name="Path 278"
                  d="M15.395,7a1.042,1.042,0,0,0-.272-.657L9.1.3A1.038,1.038,0,0,0,7.675.267a.909.909,0,0,0-.03,1.344l4.414,4.436H1a.956.956,0,1,0,0,1.91H12.058L7.645,12.393a.911.911,0,0,0,.03,1.347A1.041,1.041,0,0,0,9.1,13.706l6.024-6.047A.907.907,0,0,0,15.395,7"
                  transform="translate(0.03 0)" fill="#db3232"/>
        </g>
    </g>
</svg>
