<svg xmlns="http://www.w3.org/2000/svg" width="12" height="11" viewBox="0 0 12 11"><g><g><path fill="#fff" d="M9.606.64a.124.124 0 0 0-.157-.08l-.006.003c-.407.139-1.818.683-3.364 2.008a.051.051 0 0 0 .06.082 12.21 12.21 0 0 1 3.52-1.49.124.124 0 0 0 .09-.176zM6.453 3.194c1.339-.57 2.769-.893 4.222-.957a.124.124 0 0 0 .124-.154l-.075-.415a.124.124 0 0 0-.14-.105h-.007c-.462.061-2.177.356-4.152 1.573a.035.035 0 0 0 .033.06zm4.994 6.458V3.07a.278.278 0 0 0-.266-.272H11c-1.651.028-3.279.41-4.772 1.118a.297.297 0 0 0-.17.27v6.595a.22.22 0 0 0 .31.2 11.55 11.55 0 0 1 4.633-1.053h.166a.277.277 0 0 0 .279-.276zM5.327 2.66a.051.051 0 0 0 .062-.082C3.84 1.247 2.43.703 2.024.563a.124.124 0 0 0-.16.07L1.86.638 1.72.992a.124.124 0 0 0 .09.175c1.244.308 2.43.81 3.518 1.487zM.746 1.674l-.076.415a.124.124 0 0 0 .124.154c1.454.064 2.884.388 4.223.957a.035.035 0 0 0 .032-.06C3.066 1.918 1.352 1.623.89 1.564a.124.124 0 0 0-.144.1l-.001.005zM.287 2.798a.278.278 0 0 0-.266.272v6.583a.277.277 0 0 0 .28.275h.166c1.6.026 3.179.385 4.633 1.053a.22.22 0 0 0 .31-.2V4.179a.297.297 0 0 0-.17-.27A11.594 11.594 0 0 0 .466 2.793z"/></g></g></svg>