<svg xmlns="http://www.w3.org/2000/svg" width="56" height="56" viewBox="0 0 56 56"><defs><clipPath id="3v1ga"><path d="M0 56V0h56v56z"/></clipPath></defs><g><g><g><g><path fill="#333" d="M0 56V0h56v56z"/></g><g clip-path="url(#3v1ga)"><path fill="#333" d="M27.812 27.811c0 7.681-6.226 13.906-13.906 13.906C6.23 41.717 0 35.492 0 27.81c0-7.68 6.229-13.906 13.906-13.906 7.68 0 13.906 6.227 13.906 13.906"/></g><g clip-path="url(#3v1ga)"><path fill="#333" d="M31.289 41.717a6.954 6.954 0 1 1-.002 13.907 6.954 6.954 0 0 1 .002-13.907"/></g><g clip-path="url(#3v1ga)"><path fill="#333" d="M55.624 46.352a4.636 4.636 0 0 0-4.635 4.635H48.67a4.638 4.638 0 0 0-4.635-4.635v-2.318A4.635 4.635 0 0 0 48.67 39.4h2.318a4.638 4.638 0 0 0 4.635 4.635z"/></g><g clip-path="url(#3v1ga)"><path fill="#333" d="M16.224 46.352a2.317 2.317 0 1 1 0 4.635 2.317 2.317 0 0 1 0-4.635"/></g><g clip-path="url(#3v1ga)"><path fill="#333" d="M2.317 9.27a2.317 2.317 0 1 1 0 4.635 2.317 2.317 0 0 1 0-4.635"/></g><g clip-path="url(#3v1ga)"><path fill="#333" d="M15.065 2.317a3.477 3.477 0 1 1 0 6.954 3.477 3.477 0 0 1 0-6.954"/></g><g clip-path="url(#3v1ga)"><path fill="#333" d="M9.27 52.146a3.474 3.474 0 0 1-3.476 3.477 3.477 3.477 0 1 1 3.477-3.477"/></g><g clip-path="url(#3v1ga)"><path fill="#333" d="M46.354 18.54a9.267 9.267 0 0 0-9.271-9.27V4.635c2.142 0 4.171.484 5.984 1.349L37.083 0C29.74 0 23.414 4.28 20.41 10.47c7.02 2.643 12.037 9.409 12.037 17.341 0 2.896-.684 5.628-1.874 8.07 2.027.766 4.214 1.2 6.509 1.2 10.24 0 18.541-8.3 18.541-18.54l-5.985-5.985a13.856 13.856 0 0 1 1.35 5.985zM43.067 5.985a13.957 13.957 0 0 1 6.572 6.572z"/></g></g></g></g></svg>