<svg xmlns="http://www.w3.org/2000/svg" width="21" height="21" viewBox="0 0 21 21"><g><g clip-path="url(#clip-2097f271-dc45-4d7a-9b23-e902f243f9df)"><path fill="#7d7d7d" d="M.052 10.665a1.062 1.062 0 0 1-.052-.28c0-.195.078-.391.26-.587l9.459-9.1c.13-.111.26-.167.363-.167l.364.168 9.433 9.099c.182.168.26.364.26.588 0 .084-.026.195-.052.28-.104.307-.364.475-.728.475h-1.507v9.155h-5.639v-5.515c0-.308-.234-.532-.494-.532H8.471c-.286 0-.494.252-.494.532v5.515h-5.69v-9.155H.779c-.363 0-.597-.168-.727-.476"/></g></g></svg>