<svg xmlns="http://www.w3.org/2000/svg" xmlns:xlink="http://www.w3.org/1999/xlink" width="25.758" height="25.759" viewBox="0 0 25.758 25.759">
  <defs>
    <clipPath id="clip-path">
      <rect id="Прямоугольник_95" data-name="Прямоугольник 95" width="25.758" height="25.759" fill="#fff"/>
    </clipPath>
  </defs>
  <g id="Сгруппировать_186" data-name="Сгруппировать 186" clip-path="url(#clip-path)">
    <path id="Контур_261" data-name="Контур 261" d="M3.306,0H22.452a3.228,3.228,0,0,1,3.306,3.306V22.452a3.228,3.228,0,0,1-3.306,3.306H3.306A3.228,3.228,0,0,1,0,22.452V3.306A3.228,3.228,0,0,1,3.306,0M18.764,2.862A1.162,1.162,0,0,0,17.6,4.022V6.8a1.163,1.163,0,0,0,1.159,1.16h2.911a1.163,1.163,0,0,0,1.16-1.16V4.022a1.163,1.163,0,0,0-1.16-1.16Zm4.083,8.031H20.58a7.534,7.534,0,0,1,.331,2.21A7.885,7.885,0,0,1,12.9,20.861,7.885,7.885,0,0,1,4.9,13.1a7.521,7.521,0,0,1,.331-2.21H2.862V21.774A1.027,1.027,0,0,0,3.886,22.8H21.824a1.027,1.027,0,0,0,1.024-1.024V10.893ZM12.9,7.811A5.1,5.1,0,0,0,7.73,12.823,5.1,5.1,0,0,0,12.9,17.836a5.1,5.1,0,0,0,5.174-5.013A5.1,5.1,0,0,0,12.9,7.811" transform="translate(0 0)" fill="#fff"/>
  </g>
</svg>
