<svg xmlns="http://www.w3.org/2000/svg" width="16" height="15" viewBox="0 0 16 15"><g><g><path fill="#fff" d="M14.822 10.889l-3.03-1.562a1.01 1.01 0 0 0-1.248.266l-1.11 1.42c-1.077-.577-1.904-1.14-2.857-2.092C5.562 7.906 5.016 7.063 4.47 6.017l1.406-1.093a.991.991 0 0 0 .265-1.25L4.578.661A.998.998 0 0 0 3.142.286l-1.936 1.28A1.52 1.52 0 0 0 .55 2.91c.03.547.109 1.234.234 1.718.562 2.155 1.905 4.388 3.794 6.277 1.89 1.905 4.123 3.248 6.278 3.81.484.125 1.171.188 1.733.235a1.52 1.52 0 0 0 1.359-.687l1.249-1.952a.987.987 0 0 0-.375-1.421z"/></g></g></svg>