<svg xmlns="http://www.w3.org/2000/svg" width="9" height="12" viewBox="0 0 9 12"><g><g><g><g><path fill="#fff" d="M2.695 9.69h3.08L4.236 12z"/></g></g><g><g><path fill="#fff" d="M6.61 3.916c-.01.087-.045.27-.045.27H5.07s.027-.127-.007-.197a.456.456 0 0 0-.152-.154.552.552 0 0 0-.276-.086c-.128 0-.148-.003-.287.036-.138.038-.275.175-.284.276-.008.101.005.138.04.173.05.04.112.082.294.118.302.06.57.118.57.118s.317.072.482.117c.164.045.292.109.4.175.11.066.208.154.263.226a.71.71 0 0 1 .147.317c.02.132.019.172.004.27-.014.1-.017.157-.085.34-.06.147-.028.11-.153.328-.04.059-.06.112-.258.335-.149.133-.16.154-.287.245a2.37 2.37 0 0 1-.454.245c-.194.078-.38.123-.472.148-.093.025-.43.073-.56.083-.131.01-.517.009-.733-.013a3.069 3.069 0 0 1-.504-.095 2.691 2.691 0 0 1-.416-.182 1.337 1.337 0 0 1-.299-.263c-.088-.113-.093-.135-.148-.259a.933.933 0 0 1-.036-.273c0-.103.046-.416.046-.416h1.56s-.016.068-.014.131a.37.37 0 0 0 .045.17.346.346 0 0 0 .074.1.343.343 0 0 0 .123.065.808.808 0 0 0 .181.03c.078.006.157 0 .263-.015.106-.015.197-.058.197-.058s.148-.076.197-.146c.048-.07.1-.16.073-.233-.028-.073-.02-.054-.076-.11-.056-.057-.082-.06-.163-.09-.08-.028-.23-.061-.339-.08-.108-.02-.554-.117-.473-.092a4.475 4.475 0 0 1-.488-.146 1.21 1.21 0 0 1-.365-.212.888.888 0 0 1-.21-.243.531.531 0 0 1-.075-.28 1.536 1.536 0 0 1 .132-.607 1.92 1.92 0 0 1 .168-.285c.058-.073.213-.24.257-.276.044-.036.243-.185.348-.234.104-.05.248-.124.423-.175.43-.146.697-.16.914-.169.218-.01.443-.003.593.011.15.015.448.07.535.092.087.023.378.137.496.248.118.111.152.14.255.328.06.171.083.307.073.394zM4.234.836C1.925.836 0 2.762 0 5.072c0 2.31 1.925 4.235 4.235 4.235 2.31 0 4.236-1.925 4.236-4.235 0-2.31-1.925-4.236-4.236-4.236z"/></g></g></g></g></svg>