<svg id="Group_633" xmlns="http://www.w3.org/2000/svg" xmlns:xlink="http://www.w3.org/1999/xlink" width="20.589" height="28.112" viewBox="0 0 20.589 28.112">
    <defs>
        <clipPath id="clip-path">
            <rect id="Rectangle_307"  width="20.589" height="28.112" transform="translate(0 0)" fill="#333"/>
        </clipPath>
    </defs>
    <g id="Group_630" transform="translate(0 0)" clip-path="url(#clip-path)">
        <path id="Path_595" d="M.029,7.638a.349.349,0,0,1,.345-.345H20.244a.349.349,0,0,1,.345.345V9.476a.349.349,0,0,1-.345.345H18.493L17.4,25.9a2.378,2.378,0,0,1-2.355,2.211H5.858A2.371,2.371,0,0,1,3.5,25.958L2.125,9.849H.373A.349.349,0,0,1,.029,9.5ZM4.8,3.417h2.01V2.326A2.316,2.316,0,0,1,9.132,0h2.3a2.316,2.316,0,0,1,2.326,2.326V3.417h6.461a.349.349,0,0,1,.345.345V5.6a.349.349,0,0,1-.345.345H.345A.349.349,0,0,1,0,5.6V3.762a.349.349,0,0,1,.345-.345Zm3.991-.086a.105.105,0,0,0,.029.086h2.958c0-.029.029-.057.029-.086V2.326a.375.375,0,0,0-.373-.345h-2.3a.349.349,0,0,0-.345.345Z" transform="translate(0 0)" fill="#333"/>
    </g>
</svg>
